<svg width="1024" height="1024" viewBox="0 0 1024 1024" fill="none" xmlns="http://www.w3.org/2000/svg">
<g clip-path="url(#clip0_4_42)">
<path d="M312.442 266.218C316.803 265.974 321.267 266.016 325.634 266.096C367.008 266.848 407.032 278.854 439.437 305.252C446.315 310.856 452.486 317.12 458.625 323.506C449.742 330.336 440.452 336.778 431.399 343.389C422.351 349.997 413.329 356.962 403.889 362.994C393.215 353.892 382.758 346.458 369.781 340.918C341.067 328.659 304.291 328.772 275.42 340.421C274.535 340.78 273.654 341.149 272.777 341.53C271.9 341.911 271.029 342.303 270.162 342.705C269.295 343.108 268.434 343.521 267.578 343.945C266.721 344.369 265.87 344.804 265.025 345.249C264.18 345.694 263.34 346.15 262.505 346.616C261.671 347.082 260.843 347.558 260.021 348.045C259.198 348.532 258.382 349.029 257.572 349.536C256.763 350.043 255.959 350.561 255.162 351.088C254.365 351.615 253.575 352.152 252.791 352.699C252.008 353.246 251.231 353.802 250.461 354.368C249.691 354.934 248.928 355.51 248.173 356.095C247.418 356.68 246.67 357.275 245.929 357.879C245.188 358.482 244.455 359.095 243.73 359.718C243.005 360.34 242.287 360.971 241.578 361.611C240.869 362.251 240.167 362.9 239.473 363.557C238.78 364.214 238.095 364.88 237.418 365.555C236.741 366.23 236.073 366.913 235.413 367.604C234.753 368.295 234.102 368.994 233.46 369.702C232.817 370.409 232.184 371.125 231.559 371.848C230.935 372.571 230.32 373.301 229.713 374.04C229.107 374.779 228.51 375.525 227.922 376.278C227.334 377.031 226.756 377.792 226.187 378.56C225.618 379.328 225.059 380.103 224.51 380.885C223.961 381.666 223.421 382.455 222.891 383.25C222.361 384.045 221.841 384.847 221.331 385.655C220.822 386.464 220.322 387.278 219.832 388.099C219.343 388.919 218.864 389.745 218.395 390.578C217.926 391.411 217.467 392.249 217.019 393.093C216.571 393.937 216.134 394.787 215.707 395.642C215.28 396.497 214.863 397.357 214.458 398.222C214.053 399.087 213.658 399.958 213.274 400.833C212.891 401.708 212.518 402.587 212.156 403.472C199.894 432.724 199.611 468.034 211.754 497.379C212.118 498.269 212.493 499.155 212.878 500.036C213.263 500.917 213.66 501.793 214.067 502.664C214.474 503.535 214.892 504.402 215.321 505.263C215.75 506.124 216.189 506.979 216.639 507.829C217.089 508.679 217.549 509.523 218.02 510.362C218.491 511.201 218.972 512.033 219.463 512.86C219.954 513.687 220.456 514.508 220.967 515.322C221.479 516.137 222.001 516.945 222.532 517.746C223.064 518.547 223.605 519.342 224.156 520.13C224.707 520.919 225.268 521.7 225.839 522.474C226.41 523.248 226.99 524.015 227.579 524.775C228.168 525.535 228.767 526.288 229.375 527.033C229.983 527.778 230.6 528.515 231.227 529.245C231.853 529.975 232.488 530.697 233.133 531.411C233.777 532.126 234.43 532.832 235.091 533.53C235.753 534.228 236.423 534.918 237.102 535.599C237.781 536.28 238.468 536.953 239.163 537.618C239.858 538.282 240.562 538.938 241.273 539.585C241.984 540.232 242.704 540.87 243.431 541.499C244.158 542.128 244.893 542.749 245.636 543.36C246.379 543.971 247.129 544.573 247.886 545.165C248.644 545.758 249.409 546.341 250.18 546.915C250.952 547.488 251.731 548.052 252.517 548.607C253.303 549.162 254.096 549.706 254.895 550.241C255.694 550.776 256.5 551.3 257.312 551.815C258.125 552.33 258.943 552.835 259.768 553.33C260.593 553.825 261.423 554.309 262.26 554.783C263.097 555.257 263.939 555.721 264.788 556.174C265.636 556.627 266.49 557.07 267.349 557.502C268.208 557.935 269.073 558.356 269.942 558.767C270.811 559.178 271.686 559.578 272.566 559.967C273.445 560.356 274.329 560.735 275.218 561.102C304.448 572.975 342.561 573.509 371.746 561.137C394.589 551.453 414.45 535.144 426.769 513.42C430.378 507.055 433.082 500.37 435.842 493.612C406.423 494.185 376.938 493.691 347.513 493.591L323.101 493.551C316.591 493.551 309.853 493.92 303.43 492.705C297.75 491.63 292.234 488.465 287.993 484.576C287.578 484.197 287.173 483.809 286.778 483.41C286.383 483.012 285.997 482.604 285.622 482.186C285.247 481.768 284.883 481.341 284.529 480.905C284.175 480.469 283.832 480.024 283.501 479.571C283.17 479.118 282.85 478.657 282.541 478.188C282.232 477.719 281.936 477.242 281.651 476.758C281.366 476.275 281.094 475.784 280.834 475.286C280.573 474.789 280.326 474.285 280.091 473.775C279.856 473.265 279.633 472.75 279.424 472.229C279.215 471.708 279.018 471.182 278.835 470.651C278.652 470.12 278.483 469.585 278.326 469.046C278.17 468.507 278.027 467.965 277.898 467.418C277.769 466.871 277.653 466.322 277.551 465.77C277.449 465.218 277.361 464.664 277.287 464.107C277.213 463.55 277.153 462.992 277.106 462.433C277.06 461.874 277.028 461.313 277.009 460.752C276.711 451.467 280.745 441.412 287.252 434.802C291.88 430.1 297.501 427.46 303.999 426.483C311.608 425.34 319.795 426.044 327.5 426.063L368.111 426.051L513.59 426.06C518.903 401.693 525.277 381.528 537.475 359.604C561.346 316.698 598.535 287.327 645.639 273.934C647.223 273.474 648.812 273.034 650.407 272.613C652.002 272.192 653.601 271.791 655.206 271.41C656.81 271.028 658.419 270.666 660.032 270.325C661.646 269.983 663.264 269.661 664.885 269.359C666.506 269.057 668.131 268.775 669.759 268.513C671.388 268.251 673.019 268.009 674.653 267.787C676.287 267.566 677.924 267.364 679.563 267.182C681.202 267.001 682.844 266.84 684.487 266.699C686.13 266.558 687.775 266.437 689.421 266.336C691.067 266.235 692.714 266.155 694.363 266.095C696.011 266.035 697.66 265.995 699.309 265.976C700.958 265.956 702.607 265.957 704.256 265.978C705.905 265.999 707.554 266.041 709.202 266.102C710.85 266.164 712.497 266.246 714.143 266.348C715.789 266.451 717.434 266.573 719.077 266.716C720.72 266.859 722.361 267.022 724 267.205C725.639 267.388 727.276 267.591 728.91 267.815C730.544 268.038 732.175 268.282 733.803 268.545C735.431 268.809 737.056 269.093 738.677 269.396C740.298 269.699 741.915 270.023 743.528 270.367C745.141 270.71 746.75 271.073 748.354 271.456C749.958 271.839 751.557 272.242 753.151 272.664C754.746 273.087 756.335 273.529 757.918 273.99C759.501 274.451 761.079 274.932 762.65 275.433C764.221 275.933 765.786 276.453 767.345 276.992C768.904 277.531 770.456 278.089 772.001 278.666C773.546 279.243 775.084 279.839 776.614 280.454C778.145 281.069 779.667 281.702 781.182 282.355C782.697 283.007 784.203 283.678 785.701 284.368C787.199 285.057 788.689 285.765 790.17 286.491C791.651 287.217 793.122 287.961 794.584 288.724C796.047 289.487 797.5 290.267 798.943 291.065C800.233 291.828 801.513 292.607 802.783 293.402C804.053 294.197 805.313 295.007 806.563 295.834C807.813 296.66 809.053 297.502 810.282 298.359C811.511 299.217 812.729 300.09 813.936 300.978C815.143 301.866 816.338 302.769 817.523 303.686C818.708 304.604 819.881 305.537 821.042 306.484C822.203 307.431 823.352 308.393 824.489 309.369C825.626 310.345 826.75 311.335 827.863 312.339C828.975 313.343 830.074 314.361 831.161 315.393C832.248 316.424 833.322 317.469 834.382 318.528C835.443 319.587 836.49 320.658 837.524 321.743C838.558 322.828 839.578 323.925 840.584 325.036C841.591 326.146 842.583 327.269 843.561 328.404C844.539 329.539 845.503 330.687 846.453 331.846C847.402 333.005 848.337 334.176 849.257 335.359C850.178 336.542 851.083 337.736 851.973 338.941C852.864 340.146 853.739 341.362 854.599 342.589C855.458 343.816 856.303 345.054 857.132 346.303C857.961 347.551 858.774 348.809 859.571 350.078C860.368 351.347 861.15 352.625 861.915 353.914C862.68 355.202 863.43 356.5 864.163 357.807C864.896 359.114 865.612 360.43 866.312 361.755C867.012 363.08 867.695 364.413 868.362 365.755C869.029 367.097 869.678 368.447 870.311 369.806C870.944 371.164 871.559 372.53 872.158 373.904C872.757 375.278 873.338 376.659 873.902 378.047C874.466 379.435 875.013 380.83 875.542 382.232C876.071 383.634 876.582 385.043 877.076 386.458C877.57 387.873 878.046 389.293 878.504 390.72C878.963 392.147 879.403 393.579 879.825 395.016C880.248 396.454 880.652 397.897 881.039 399.345C881.425 400.792 881.793 402.245 882.143 403.702C894.028 451.448 887.787 504.749 862.182 547.131C837.062 588.711 800.077 617.145 752.628 628.605C740.6 631.511 728.109 633.002 715.777 633.841C672.567 636.782 634.613 628.07 597.571 605.484C555.54 579.856 529.736 540.964 518.281 493.527L503.712 493.573C503.308 495.465 502.874 497.35 502.41 499.228C501.945 501.106 501.451 502.976 500.926 504.838C500.402 506.7 499.848 508.553 499.264 510.398C498.681 512.242 498.068 514.076 497.425 515.901C496.782 517.726 496.111 519.54 495.41 521.343C494.709 523.146 493.979 524.938 493.221 526.717C492.463 528.497 491.676 530.264 490.861 532.019C490.046 533.774 489.204 535.515 488.333 537.242C487.462 538.969 486.564 540.682 485.638 542.381C484.712 544.08 483.759 545.763 482.78 547.431C481.8 549.099 480.794 550.751 479.761 552.387C478.728 554.023 477.67 555.642 476.585 557.244C475.501 558.846 474.391 560.43 473.255 561.996C472.12 563.563 470.96 565.11 469.775 566.639C468.59 568.168 467.38 569.678 466.147 571.169C464.914 572.659 463.657 574.129 462.376 575.579C430.269 611.641 384.19 631.996 336.329 634.832C283.965 637.935 235.131 622.795 195.839 587.703C160.675 556.299 139.304 508.257 136.775 461.429C136.686 459.896 136.615 458.363 136.564 456.829C136.513 455.294 136.48 453.76 136.467 452.225C136.453 450.69 136.458 449.155 136.482 447.62C136.507 446.085 136.55 444.55 136.612 443.017C136.674 441.483 136.755 439.95 136.855 438.418C136.955 436.886 137.074 435.356 137.211 433.827C137.348 432.298 137.505 430.771 137.68 429.246C137.855 427.721 138.049 426.198 138.262 424.678C138.475 423.157 138.707 421.64 138.957 420.125C139.207 418.61 139.476 417.099 139.763 415.591C140.05 414.083 140.356 412.579 140.681 411.079C141.006 409.578 141.349 408.082 141.71 406.59C142.071 405.098 142.451 403.611 142.849 402.128C143.247 400.645 143.663 399.168 144.098 397.696C144.533 396.223 144.985 394.756 145.456 393.295C145.927 391.834 146.415 390.379 146.922 388.93C147.428 387.481 147.952 386.038 148.494 384.602C149.037 383.166 149.597 381.737 150.174 380.314C150.751 378.891 151.346 377.476 151.958 376.069C152.57 374.661 153.199 373.261 153.846 371.869C154.493 370.476 155.157 369.092 155.838 367.716C156.519 366.34 157.216 364.973 157.931 363.614C158.646 362.255 159.377 360.906 160.124 359.565C160.872 358.224 161.636 356.893 162.417 355.572C163.198 354.25 163.994 352.938 164.807 351.636C165.62 350.333 166.449 349.041 167.294 347.76C168.139 346.478 168.999 345.207 169.876 343.946C170.752 342.686 171.643 341.437 172.55 340.198C173.457 338.959 174.38 337.732 175.317 336.516C176.254 335.3 177.206 334.096 178.173 332.904C179.14 331.711 180.121 330.531 181.117 329.363C182.113 328.195 183.123 327.039 184.148 325.896C218.308 288.155 261.834 268.678 312.442 266.218Z" fill="#36B37E"/>
<path d="M693.968 331.706C703.505 330.471 714.087 331.668 723.566 333.177C753.639 337.964 780.222 352.125 798.225 377.179C821.034 408.921 825.429 448.687 819.276 486.353C813.725 486.116 808.14 486.206 802.583 486.179C802.875 475.089 802.433 463.956 802.822 452.885C803.001 447.783 804.013 442.78 804.299 437.663C804.42 435.501 804.481 433.225 804.05 431.093C802.941 425.607 800.212 420.388 798.479 415.088C797.53 412.188 797.053 408.689 795.61 406.008C794.932 404.747 793.835 403.587 792.884 402.524C793.049 397.096 792.698 394.374 790.198 389.538C790.139 390.391 790.051 391.07 789.777 391.887C788.083 396.945 789.558 401.662 786.035 406.235C785.596 406.806 785.221 407.202 784.931 407.863L785.63 409.382L784.671 408.309C784.802 409.358 784.864 410.489 784.586 411.523C784.013 413.655 782.776 415.695 781.997 417.772C780.439 421.927 779.264 426.389 778.49 430.757C777.638 435.567 777.953 440.405 778.286 445.249C779.062 446.442 779.77 446.48 781.075 446.983C782.289 451.865 782.42 478.609 781.265 482.917L780.462 482.505L781.533 482.136L780.735 481.964C779.799 471.971 780.571 461.28 780.609 451.209C778.115 451.243 774.916 451.599 772.497 451.152C770.703 450.821 770.933 448.853 770.101 447.424C768.622 444.887 760.962 441.6 760.575 440.455C760.179 439.28 760.675 438.847 759.852 437.696C758.611 437.442 757.951 437.432 756.731 437.777C756.298 438.854 756.763 439.306 757.139 440.365C755.377 442.582 750.275 443.882 747.704 445.594C745.574 447.013 745.61 448.987 745.213 451.309C743.679 452.322 741.335 451.966 739.495 452.012L739.316 486.355L732.758 486.322C730.499 482.868 728.365 479.323 726.185 475.818C724.4 471.783 717.739 458.027 718.607 454.47C719.37 454.101 720.178 453.742 720.892 453.286C721.964 452.6 722.657 451.862 722.778 450.523C722.876 449.43 722.491 448.529 721.848 447.692C720.085 446.946 718.265 447.206 716.397 447.299C713.412 430.542 711.466 413.666 710.557 396.669C710.324 392.835 709.54 388.413 709.865 384.611C709.949 383.624 710.421 382.802 710.888 381.946C711.456 380.905 711.648 380.798 711.655 379.572L709.893 379.263L709.818 378.723C710.226 378.378 710.681 378.024 711.013 377.601C712.072 376.248 710.92 369.006 710.773 367.104L706.486 364.916C706.512 361.533 706.411 358.271 706.042 354.907C704.956 357.821 704.857 360.99 704.074 364.018C702.54 365.23 699.842 367.3 699.143 369.163C698.347 371.285 700.276 380.039 700.336 382.884C700.437 387.626 698.403 416.491 696.949 419.227L695.428 418.987L694.924 419.73C694.843 421.29 695.396 422.197 696.105 423.525C697.521 426.179 693.777 443.896 693.141 447.531C691.571 447.543 689.365 447.333 687.961 448.175C686.775 448.885 686.736 449.401 686.439 450.64C687.334 453.604 689.03 454.846 691.48 456.628C688.506 466.396 685.167 478.318 678.497 486.249C677.467 487.474 676.709 488.093 675.112 488.247L674.015 487.277C671.934 482.136 672.897 475.525 672.918 470.038C672.967 457.522 673.293 443.691 663.582 434.267C659.595 430.397 654.636 427.988 649.245 426.835C640.932 425.057 631.062 426.044 622.565 426.064L580.377 426.051C584.834 407.385 593.621 388.944 606.074 374.283C628.244 348.182 660.243 334.41 693.968 331.706Z" fill="white"/>
<path d="M738.425 670.984L760.71 670.976C770.196 698.752 781.703 725.91 790.979 753.769C784.033 754.079 777.03 753.898 770.077 753.876C768.2 748.557 766.379 743.218 764.614 737.86C754.567 737.881 744.519 737.842 734.472 737.742C732.464 743.232 730.506 748.74 728.599 754.266C714.105 754.901 699.464 754.218 684.939 754.471C676.853 742.711 668.736 731.379 662.062 718.722C662.417 730.473 662.142 742.313 662.124 754.073L648.967 754.095L642.098 754.136C641.77 726.591 642.208 698.99 642.219 671.439C653.659 671.369 675.579 669.541 685.754 673.951C686.111 674.102 686.463 674.263 686.812 674.432C687.161 674.602 687.505 674.781 687.845 674.968C688.184 675.155 688.519 675.351 688.848 675.555C689.178 675.76 689.502 675.972 689.82 676.193C690.139 676.414 690.451 676.644 690.758 676.881C691.065 677.118 691.366 677.362 691.66 677.615C691.954 677.868 692.242 678.128 692.523 678.395C692.804 678.662 693.077 678.937 693.344 679.218C693.611 679.499 693.87 679.787 694.122 680.082C694.374 680.377 694.618 680.678 694.855 680.985C695.092 681.292 695.32 681.605 695.54 681.924C695.761 682.243 695.973 682.568 696.177 682.897C696.381 683.227 696.576 683.562 696.763 683.902C696.949 684.242 697.127 684.586 697.296 684.935C697.465 685.284 697.624 685.638 697.775 685.995C697.926 686.352 698.068 686.712 698.2 687.077C700.72 693.879 700.541 702.025 697.359 708.57C694.491 714.469 690.25 717.458 684.198 719.423C690.401 729.487 699.936 743.188 707.45 752.052C717.524 724.964 729.096 698.345 738.425 670.984Z" fill="black"/>
<path d="M583.432 668.781C584.164 668.757 584.896 668.751 585.628 668.762C586.36 668.774 587.091 668.804 587.822 668.851C588.553 668.899 589.282 668.965 590.009 669.048C590.736 669.131 591.461 669.233 592.184 669.352C592.907 669.471 593.626 669.608 594.341 669.762C595.057 669.917 595.769 670.089 596.476 670.278C597.183 670.467 597.886 670.674 598.583 670.898C599.28 671.122 599.971 671.363 600.656 671.621C601.341 671.879 602.02 672.154 602.692 672.445C603.364 672.736 604.028 673.043 604.685 673.367C605.342 673.691 605.99 674.031 606.63 674.387C607.27 674.742 607.901 675.113 608.522 675.5C609.144 675.887 609.756 676.289 610.358 676.706C610.96 677.123 611.551 677.554 612.132 678C612.713 678.445 613.282 678.905 613.841 679.379C614.399 679.853 614.945 680.34 615.479 680.841C616.014 681.342 616.535 681.855 617.044 682.382C617.553 682.908 618.049 683.446 618.532 683.997C619.015 684.548 619.483 685.11 619.938 685.684C620.393 686.257 620.834 686.842 621.26 687.437C621.686 688.032 622.097 688.638 622.494 689.254C622.891 689.869 623.272 690.494 623.637 691.129C624.003 691.763 624.353 692.406 624.687 693.057C625.022 693.709 625.34 694.368 625.641 695.035C625.943 695.702 626.228 696.377 626.497 697.058C626.766 697.739 627.017 698.426 627.252 699.12C627.487 699.813 627.705 700.512 627.905 701.216C628.106 701.921 628.289 702.629 628.455 703.342C628.62 704.055 628.768 704.772 628.899 705.493C629.03 706.214 629.142 706.937 629.237 707.663C629.332 708.389 629.409 709.117 629.468 709.847C629.527 710.576 629.569 711.307 629.592 712.039C629.615 712.771 629.621 713.503 629.608 714.235C629.595 714.967 629.565 715.698 629.516 716.429C629.467 717.16 629.401 717.889 629.316 718.616C629.231 719.343 629.129 720.068 629.009 720.79C628.889 721.513 628.751 722.232 628.596 722.947C628.441 723.662 628.268 724.374 628.078 725.081C627.887 725.788 627.68 726.49 627.455 727.187C627.23 727.884 626.988 728.574 626.729 729.259C626.47 729.944 626.195 730.623 625.903 731.294C625.611 731.965 625.303 732.629 624.978 733.285C624.653 733.942 624.313 734.59 623.956 735.229C623.599 735.868 623.227 736.499 622.84 737.12C622.452 737.741 622.049 738.353 621.632 738.954C621.215 739.555 620.783 740.146 620.336 740.727C619.889 741.307 619.429 741.876 618.954 742.433C618.479 742.991 617.991 743.537 617.49 744.07C616.989 744.604 616.474 745.125 615.947 745.633C615.42 746.142 614.881 746.637 614.33 747.118C613.779 747.6 613.216 748.068 612.642 748.523C612.067 748.977 611.482 749.417 610.886 749.842C610.29 750.267 609.684 750.678 609.068 751.074C608.452 751.469 607.827 751.85 607.192 752.215C606.557 752.58 605.914 752.929 605.262 753.262C604.61 753.595 603.95 753.912 603.283 754.213C602.615 754.514 601.94 754.799 601.259 755.066C600.578 755.334 599.89 755.585 599.196 755.819C598.502 756.053 597.803 756.27 597.099 756.469C596.394 756.669 595.685 756.851 594.972 757.016C594.259 757.181 593.542 757.328 592.821 757.458C592.1 757.587 591.377 757.699 590.651 757.793C589.924 757.887 589.196 757.963 588.467 758.021C587.737 758.08 587.006 758.12 586.274 758.142C585.543 758.164 584.813 758.168 584.082 758.155C583.351 758.142 582.62 758.11 581.891 758.061C581.162 758.012 580.434 757.944 579.708 757.859C578.982 757.774 578.259 757.671 577.538 757.55C576.817 757.43 576.099 757.292 575.385 757.136C574.671 756.98 573.961 756.807 573.255 756.616C572.55 756.426 571.849 756.218 571.154 755.993C570.458 755.768 569.768 755.526 569.085 755.267C568.401 755.008 567.724 754.733 567.054 754.441C566.384 754.149 565.721 753.841 565.066 753.516C564.411 753.192 563.765 752.852 563.126 752.495C562.488 752.139 561.859 751.767 561.239 751.38C560.619 750.993 560.009 750.591 559.408 750.174C558.808 749.757 558.218 749.326 557.639 748.88C557.06 748.434 556.492 747.974 555.935 747.5C555.378 747.026 554.834 746.539 554.301 746.039C553.768 745.538 553.248 745.025 552.741 744.499C552.233 743.973 551.739 743.435 551.258 742.884C550.777 742.334 550.309 741.772 549.856 741.199C549.402 740.626 548.963 740.042 548.538 739.447C548.113 738.852 547.702 738.247 547.307 737.632C546.912 737.017 546.533 736.393 546.168 735.76C545.803 735.126 545.454 734.484 545.121 733.833C544.788 733.182 544.471 732.524 544.17 731.858C543.869 731.192 543.585 730.519 543.317 729.838C543.049 729.158 542.798 728.472 542.564 727.779C542.33 727.087 542.113 726.389 541.913 725.686C541.713 724.983 541.53 724.275 541.365 723.563C541.2 722.851 541.052 722.135 540.922 721.416C540.792 720.697 540.68 719.975 540.585 719.25C540.49 718.525 540.413 717.799 540.354 717.07C540.295 716.341 540.254 715.612 540.231 714.881C540.208 714.15 540.202 713.42 540.215 712.689C540.228 711.958 540.258 711.227 540.307 710.498C540.355 709.769 540.421 709.041 540.505 708.315C540.59 707.589 540.692 706.865 540.811 706.144C540.93 705.423 541.068 704.705 541.223 703.991C541.378 703.276 541.55 702.566 541.739 701.86C541.929 701.154 542.136 700.453 542.36 699.758C542.584 699.062 542.825 698.372 543.083 697.688C543.341 697.004 543.616 696.327 543.907 695.656C544.198 694.985 544.505 694.322 544.829 693.667C545.152 693.012 545.492 692.365 545.847 691.726C546.202 691.087 546.573 690.458 546.96 689.837C547.346 689.216 547.747 688.605 548.164 688.004C548.58 687.403 549.011 686.813 549.456 686.233C549.901 685.654 550.36 685.085 550.833 684.528C551.306 683.971 551.793 683.425 552.293 682.892C552.792 682.359 553.305 681.838 553.831 681.329C554.356 680.821 554.894 680.326 555.443 679.844C555.993 679.363 556.554 678.895 557.127 678.44C557.7 677.985 558.283 677.545 558.877 677.12C559.471 676.694 560.075 676.283 560.69 675.887C561.304 675.491 561.928 675.11 562.561 674.745C563.194 674.38 563.836 674.03 564.486 673.696C565.136 673.362 565.794 673.044 566.46 672.742C567.126 672.44 567.799 672.155 568.479 671.886C569.158 671.617 569.844 671.366 570.536 671.131C571.229 670.896 571.926 670.678 572.629 670.477C573.332 670.276 574.039 670.093 574.751 669.926C575.463 669.76 576.179 669.612 576.898 669.481C577.617 669.35 578.338 669.236 579.063 669.141C579.788 669.045 580.515 668.967 581.243 668.907C581.972 668.847 582.701 668.805 583.432 668.781Z" fill="black"/>
<path d="M265.673 669.067C266.396 668.984 267.12 668.92 267.846 668.873C268.572 668.826 269.299 668.797 270.026 668.786C270.753 668.775 271.48 668.781 272.207 668.806C272.934 668.831 273.66 668.873 274.385 668.934C275.11 668.994 275.833 669.072 276.554 669.168C277.275 669.264 277.994 669.378 278.709 669.509C279.424 669.64 280.136 669.789 280.844 669.956C281.553 670.122 282.256 670.306 282.955 670.507C283.654 670.708 284.348 670.926 285.036 671.161C285.725 671.396 286.407 671.648 287.083 671.917C287.759 672.186 288.428 672.471 289.09 672.773C289.752 673.074 290.406 673.392 291.052 673.726C291.698 674.06 292.336 674.41 292.965 674.775C293.594 675.14 294.214 675.521 294.824 675.917C295.435 676.312 296.035 676.723 296.625 677.148C297.215 677.573 297.794 678.013 298.363 678.467C298.931 678.921 299.488 679.389 300.034 679.87C300.579 680.351 301.112 680.846 301.633 681.353C302.154 681.86 302.663 682.38 303.158 682.913C303.654 683.446 304.136 683.99 304.605 684.547C305.074 685.103 305.528 685.67 305.969 686.249C306.41 686.828 306.836 687.417 307.248 688.017C307.659 688.616 308.056 689.226 308.438 689.845C308.82 690.464 309.186 691.092 309.537 691.729C309.888 692.366 310.223 693.012 310.542 693.666C310.861 694.319 311.163 694.98 311.45 695.649C311.737 696.318 312.007 696.993 312.26 697.675C312.513 698.357 312.75 699.045 312.969 699.738C313.188 700.432 313.391 701.131 313.576 701.834C313.761 702.537 313.928 703.245 314.078 703.957C314.229 704.668 314.361 705.383 314.476 706.102C314.591 706.82 314.689 707.541 314.768 708.264C314.847 708.987 314.909 709.712 314.953 710.438C314.997 711.164 315.023 711.891 315.031 712.618C315.039 713.345 315.029 714.073 315.001 714.8C314.974 715.527 314.928 716.252 314.865 716.977C314.801 717.702 314.72 718.424 314.621 719.145C314.522 719.866 314.405 720.583 314.271 721.298C314.136 722.013 313.984 722.725 313.815 723.432C313.646 724.139 313.459 724.842 313.255 725.54C313.051 726.239 312.83 726.932 312.592 727.619C312.354 728.306 312.099 728.987 311.827 729.662C311.556 730.337 311.268 731.004 310.963 731.665C310.658 732.326 310.338 732.978 310.001 733.623C309.664 734.268 309.312 734.905 308.944 735.532C308.577 736.159 308.194 736.777 307.795 737.386C307.396 737.995 306.983 738.593 306.556 739.182C306.128 739.77 305.686 740.347 305.229 740.914C304.773 741.481 304.303 742.036 303.82 742.579C303.336 743.122 302.839 743.653 302.33 744.172C301.82 744.691 301.298 745.198 300.763 745.691C300.228 746.184 299.682 746.664 299.124 747.13C298.565 747.597 297.996 748.049 297.415 748.487C296.835 748.926 296.244 749.35 295.642 749.759C295.041 750.168 294.43 750.562 293.809 750.941C293.188 751.32 292.559 751.684 291.92 752.032C291.281 752.38 290.634 752.712 289.979 753.029C289.324 753.345 288.661 753.645 287.992 753.929C287.322 754.212 286.645 754.479 285.962 754.73C285.279 754.98 284.591 755.213 283.896 755.43C283.201 755.647 282.502 755.846 281.798 756.028C281.094 756.21 280.386 756.375 279.673 756.522C278.96 756.669 278.245 756.799 277.526 756.91C276.807 757.022 276.086 757.116 275.363 757.193C274.644 757.269 273.923 757.327 273.2 757.368C272.478 757.409 271.755 757.432 271.031 757.437C270.308 757.442 269.585 757.43 268.862 757.4C268.139 757.37 267.417 757.322 266.697 757.257C265.976 757.192 265.258 757.109 264.541 757.008C263.824 756.907 263.111 756.789 262.4 756.654C261.689 756.518 260.982 756.365 260.279 756.195C259.576 756.025 258.877 755.838 258.183 755.633C257.489 755.429 256.8 755.208 256.117 754.969C255.434 754.731 254.757 754.476 254.086 754.205C253.415 753.934 252.752 753.647 252.095 753.343C251.438 753.039 250.79 752.719 250.149 752.384C249.508 752.049 248.875 751.698 248.251 751.331C247.627 750.964 247.013 750.583 246.408 750.187C245.803 749.79 245.207 749.379 244.622 748.953C244.037 748.528 243.463 748.088 242.9 747.634C242.336 747.18 241.784 746.713 241.243 746.232C240.702 745.751 240.174 745.257 239.658 744.75C239.141 744.243 238.638 743.724 238.147 743.193C237.656 742.662 237.178 742.119 236.713 741.564C236.249 741.009 235.799 740.444 235.362 739.867C234.925 739.29 234.503 738.702 234.095 738.105C233.687 737.508 233.294 736.9 232.915 736.283C232.537 735.666 232.174 735.041 231.827 734.406C231.479 733.772 231.147 733.13 230.831 732.479C230.515 731.828 230.215 731.169 229.931 730.504C229.647 729.839 229.38 729.167 229.129 728.488C228.878 727.809 228.643 727.125 228.426 726.435C228.209 725.745 228.008 725.05 227.824 724.35C227.641 723.65 227.475 722.946 227.326 722.238C227.177 721.53 227.045 720.819 226.931 720.104C226.817 719.39 226.72 718.673 226.641 717.954C226.562 717.235 226.5 716.514 226.457 715.792C226.413 715.07 226.387 714.347 226.378 713.623C226.37 712.9 226.379 712.177 226.406 711.454C226.433 710.731 226.478 710.009 226.541 709.288C226.603 708.567 226.683 707.848 226.78 707.131C226.878 706.414 226.993 705.7 227.126 704.989C227.258 704.278 227.408 703.57 227.575 702.866C227.742 702.162 227.927 701.463 228.128 700.768C228.329 700.073 228.548 699.384 228.783 698.699C229.018 698.015 229.27 697.337 229.538 696.665C229.807 695.993 230.091 695.328 230.392 694.67C230.693 694.012 231.01 693.362 231.343 692.72C231.676 692.077 232.024 691.443 232.388 690.818C232.752 690.193 233.131 689.577 233.525 688.97C233.919 688.363 234.328 687.766 234.751 687.179C235.174 686.592 235.611 686.016 236.063 685.451C236.514 684.886 236.979 684.332 237.458 683.789C237.936 683.246 238.427 682.716 238.932 682.197C239.437 681.678 239.954 681.172 240.483 680.679C241.012 680.186 241.553 679.706 242.106 679.239C242.659 678.772 243.223 678.319 243.798 677.88C244.373 677.441 244.958 677.017 245.554 676.606C246.15 676.195 246.755 675.8 247.37 675.419C247.985 675.038 248.61 674.673 249.243 674.322C249.876 673.972 250.517 673.637 251.167 673.318C251.816 672.999 252.473 672.697 253.137 672.41C253.802 672.123 254.473 671.853 255.15 671.599C255.827 671.345 256.511 671.108 257.2 670.888C257.889 670.667 258.583 670.464 259.282 670.277C259.981 670.091 260.685 669.922 261.392 669.77C262.099 669.618 262.81 669.483 263.524 669.366C264.238 669.249 264.954 669.149 265.673 669.067Z" fill="black"/>
<path d="M470.868 671.523C483.535 671.464 507.111 669.588 518.507 674.306C523.965 676.566 528.32 680.675 530.456 686.236C532.802 692.345 532.823 700.556 530.051 706.475C526.748 713.528 520.81 716.93 513.883 719.609C516.314 723.337 519.16 726.857 521.726 730.502L538.481 754.591C532.968 754.726 527.455 754.797 521.94 754.803L513.968 754.679C509.76 748.947 505.781 742.855 502.414 736.589C500.248 732.558 498.563 727.713 495.848 724.069C494.346 723.683 493.255 723.791 491.755 723.995C490.632 725.856 491.093 751.316 491.064 755.44L470.599 755.518L470.868 671.523Z" fill="black"/>
<path d="M176.101 669.71C182.017 669.1 189.052 670.38 194.575 672.514C195.14 672.734 195.698 672.967 196.251 673.214C196.804 673.461 197.351 673.722 197.891 673.996C198.432 674.27 198.965 674.557 199.491 674.857C200.017 675.157 200.536 675.47 201.047 675.795C201.558 676.12 202.06 676.458 202.555 676.809C203.049 677.159 203.534 677.521 204.011 677.895C204.488 678.269 204.955 678.654 205.412 679.051C205.87 679.448 206.318 679.855 206.756 680.274C207.193 680.693 207.62 681.122 208.037 681.562C208.454 682.001 208.859 682.451 209.254 682.911C209.649 683.37 210.032 683.839 210.404 684.317C210.775 684.796 211.135 685.283 211.483 685.779C211.831 686.275 212.166 686.779 212.489 687.292C212.812 687.804 213.123 688.324 213.421 688.852C213.718 689.379 214.003 689.914 214.274 690.455C214.545 690.997 214.803 691.545 215.048 692.099C208.991 695.579 202.106 697.991 195.649 700.63L195.381 699.921C193.447 694.853 190.554 690.696 185.376 688.517C180.428 686.435 174.717 686.798 169.833 688.875C169.493 689.016 169.157 689.166 168.825 689.325C168.493 689.483 168.165 689.65 167.841 689.825C167.518 690 167.199 690.183 166.884 690.374C166.569 690.565 166.26 690.764 165.956 690.971C165.651 691.178 165.352 691.392 165.059 691.614C164.765 691.836 164.477 692.065 164.195 692.302C163.913 692.539 163.637 692.782 163.368 693.032C163.098 693.283 162.835 693.54 162.578 693.803C162.321 694.067 162.071 694.337 161.828 694.613C161.585 694.89 161.35 695.172 161.121 695.46C160.892 695.749 160.67 696.043 160.456 696.342C160.242 696.641 160.036 696.946 159.838 697.256C159.639 697.565 159.449 697.88 159.266 698.2C159.083 698.519 158.909 698.843 158.742 699.172C158.576 699.5 158.418 699.832 158.269 700.168C158.119 700.505 157.978 700.845 157.846 701.188C154.855 708.82 155.056 719.317 158.59 726.734C160.957 731.702 164.985 735.571 170.21 737.4C176.016 739.432 183.34 739.066 188.888 736.383C194.058 733.883 196.715 729.742 198.545 724.512C191.533 724.438 184.506 724.705 177.495 724.872L177.534 707.636L183.375 707.629L218.549 707.7C218.617 720.823 218.254 732.413 209.463 743.026C202.758 751.12 192.931 755.201 182.62 756.138C170.641 757.226 158.198 754.199 148.89 746.388C140.064 738.982 135.437 727.999 134.559 716.652C133.686 705.356 136.511 692.848 144.028 684.118C152.534 674.239 163.471 670.74 176.101 669.71Z" fill="black"/>
<path d="M435.035 671.526L456.284 671.442C456.016 678.04 456.069 684.648 456.058 691.25C456.041 698.26 456.163 705.275 456.218 712.285C456.316 724.662 457.253 737.858 447.811 747.404C440.519 754.775 430.504 757.136 420.424 757.079C410.511 757.023 400.147 754.099 393.153 746.715C389.948 743.331 387.838 739.239 386.785 734.71C384.861 726.431 385.648 717.178 385.638 708.71C385.589 696.323 385.646 683.938 385.809 671.553L406.596 671.529C406.665 682.804 406.669 694.08 406.608 705.355C406.598 711.556 406.197 718.142 406.964 724.295C407.365 727.515 408.1 731.431 410.279 733.936C412.838 736.879 416.952 738.047 420.732 738.126C424.49 738.206 428.755 737.273 431.507 734.54C433.654 732.409 434.376 728.845 434.758 725.967C435.573 719.813 435.078 713.129 435.073 706.91L435.035 671.526Z" fill="black"/>
<path d="M325.957 671.45C341.353 671.254 356.779 671.479 372.178 671.5L372.07 688.576C363.653 688.729 355.236 688.713 346.819 688.528L346.853 704.198C355.165 704.187 363.476 704.268 371.786 704.44C371.847 709.963 371.821 715.486 371.708 721.009L346.982 721.003L346.971 729.75L347.002 737L372.503 736.999L372.542 754.378C357.157 754.149 341.737 754.384 326.348 754.409C325.51 726.84 325.922 699.039 325.957 671.45Z" fill="black"/>
<path d="M834.679 671.003C841.265 670.921 847.85 670.98 854.433 671.18L854.524 736.141C862.628 736.296 870.733 736.405 878.838 736.469C878.871 742.33 878.973 748.194 878.645 754.048C863.94 754.017 849.235 753.899 834.53 753.694C834.958 726.138 834.466 698.563 834.679 671.003Z" fill="black"/>
<path d="M799.035 671.057L818.583 670.963C819.211 698.486 819.355 726.221 818.876 753.744C812.326 754.029 805.706 753.841 799.147 753.828L799.035 671.057Z" fill="black"/>
</g>
<defs>
<clipPath id="clip0_4_42">
<rect width="1024" height="1024" fill="white"/>
</clipPath>
</defs>
</svg>
