<svg width="500" height="72" viewBox="0 0 500 72" fill="none" xmlns="http://www.w3.org/2000/svg">
<g clip-path="url(#clip0_3_38)">
<g clip-path="url(#clip1_3_38)">
<path d="M64.9849 41.4186V30.6279H89.264V62.3488C82.2562 64.6744 75.0004 65.8372 67.4965 65.8372C58.2872 65.8372 51.233 63.124 46.3338 57.6977C41.4655 52.2713 39.0314 44.5659 39.0314 34.5814C39.0314 24.5659 41.8531 16.7829 47.4965 11.2326C53.202 5.68217 61.0469 2.90697 71.0314 2.90697C77.326 2.90697 83.3725 4.16279 89.171 6.67442L84.8919 17.093C80.4268 14.8605 75.7756 13.7442 70.9384 13.7442C65.357 13.7442 60.8609 15.6357 57.45 19.4186C54.0702 23.1705 52.3803 28.3023 52.3803 34.814C52.3803 41.2946 53.7446 46.2868 56.4733 49.7907C59.202 53.2946 63.1555 55.0465 68.3338 55.0465C71.0314 55.0465 73.7756 54.7674 76.5663 54.2093V41.4186H64.9849ZM129.997 31.0465C128.478 28.7519 126.028 27.6047 122.648 27.6047C119.269 27.6047 116.819 28.7519 115.3 31.0465C113.78 33.3101 113.02 36.814 113.02 41.5581C113.02 46.2713 113.796 49.7907 115.346 52.1163C116.896 54.4419 119.346 55.6047 122.695 55.6047C126.044 55.6047 128.478 54.4419 129.997 52.1163C131.548 49.7907 132.323 46.2713 132.323 41.5581C132.323 36.814 131.548 33.3101 129.997 31.0465ZM122.788 17.3256C129.579 17.2326 135.067 19.4186 139.253 23.8837C143.439 28.3178 145.47 34.1938 145.346 41.5116C145.346 49.1395 143.331 55.1085 139.3 59.4186C135.3 63.6977 129.718 65.8372 122.555 65.8372C115.765 65.8992 110.276 63.6977 106.09 59.2326C101.935 54.7674 99.9042 48.8605 99.9972 41.5116C99.9972 33.8837 101.982 27.9457 105.951 23.6977C109.951 19.4496 115.563 17.3256 122.788 17.3256ZM234.709 41.5116V65H221.733V3.7907H239.547C247.826 3.7907 253.965 5.31008 257.965 8.34884C261.996 11.3566 264.012 15.9457 264.012 22.1163C264.012 25.7132 263.019 28.9225 261.035 31.7442C259.081 34.5349 256.275 36.7364 252.616 38.3488C261.826 52.0853 267.826 60.969 270.616 65H256.198L241.593 41.5116H234.709ZM234.709 14.4419V30.9535H238.895C242.988 30.9535 246.012 30.2713 247.965 28.907C249.919 27.5426 250.895 25.4186 250.895 22.5349C250.895 19.6512 249.903 17.5891 247.919 16.3488C245.965 15.0775 242.864 14.4419 238.616 14.4419H234.709ZM304.474 31.0465C302.954 28.7519 300.505 27.6047 297.125 27.6047C293.745 27.6047 291.295 28.7519 289.776 31.0465C288.257 33.3101 287.497 36.814 287.497 41.5581C287.497 46.2713 288.272 49.7907 289.823 52.1163C291.373 54.4419 293.823 55.6047 297.171 55.6047C300.52 55.6047 302.954 54.4419 304.474 52.1163C306.024 49.7907 306.799 46.2713 306.799 41.5581C306.799 36.814 306.024 33.3101 304.474 31.0465ZM297.264 17.3256C304.055 17.2326 309.544 19.4186 313.73 23.8837C317.916 28.3178 319.947 34.1938 319.823 41.5116C319.823 49.1395 317.807 55.1085 313.776 59.4186C309.776 63.6977 304.195 65.8372 297.032 65.8372C290.241 65.8992 284.753 63.6977 280.567 59.2326C276.412 54.7674 274.381 48.8605 274.474 41.5116C274.474 33.8837 276.458 27.9457 280.427 23.6977C284.427 19.4496 290.04 17.3256 297.264 17.3256ZM356.548 17.3256C358.161 17.3256 359.587 17.4496 360.827 17.6977L359.897 29.6512C358.843 29.3721 357.587 29.2326 356.13 29.2326C352.037 29.2326 348.843 30.2868 346.548 32.3953C344.285 34.4729 343.153 37.4031 343.153 41.186V65H330.409V18.2093H340.083L341.943 26.0698H342.595C344.083 23.4031 346.068 21.2791 348.548 19.6977C351.029 18.1163 353.695 17.3256 356.548 17.3256ZM406.255 65H397.325L394.86 58.6279H394.534C392.364 61.3566 390.147 63.2481 387.883 64.3023C385.619 65.3256 382.658 65.8372 378.999 65.8372C374.472 65.8372 370.922 64.5504 368.348 61.9767C365.774 59.3721 364.488 55.6667 364.488 50.8605C364.488 46.0543 366.193 42.4574 369.604 40.0698C373.046 37.6822 378.317 36.3643 385.418 36.1163L393.557 35.8837V33.8372C393.557 29.093 391.123 26.7209 386.255 26.7209C382.565 26.7209 378.178 27.8372 373.092 30.0698L368.86 21.4651C374.224 18.6434 380.131 17.2326 386.581 17.2326C393.061 17.2326 397.961 18.6279 401.278 21.4186C404.596 24.1783 406.255 28.3178 406.255 33.8372V65ZM393.557 47.186V43.3256L388.627 43.4651C384.875 43.5891 382.1 44.2713 380.302 45.5116C378.503 46.7209 377.604 48.5814 377.604 51.093C377.604 54.6899 379.666 56.4884 383.79 56.4884C386.767 56.4884 389.139 55.6512 390.906 53.9767C392.674 52.2713 393.557 50.0078 393.557 47.186ZM432.098 18.2093V65H419.354V18.2093H432.098ZM425.773 12.3953C421.121 12.3953 418.796 10.3178 418.796 6.16279C418.796 1.97674 421.106 -0.116281 425.726 -0.116281C430.377 -0.116281 432.703 1.96124 432.703 6.11628C432.703 8.13178 432.114 9.68217 430.935 10.7674C429.757 11.8527 428.036 12.3953 425.773 12.3953ZM458.243 -0.116281V65H445.498V-0.116281H458.243Z" fill="black"/>
<path d="M193.793 3.7907H206.769V43.4186C206.831 50.2093 204.552 55.6667 199.932 59.7907C195.312 63.9147 189.126 65.9302 181.374 65.8372C173.467 65.8372 167.343 63.8217 163.002 59.7907C158.692 55.7287 156.537 50.2093 156.537 43.2326V3.7907H169.467V41.2791C169.467 46.0543 170.413 49.5271 172.304 51.6977C174.227 53.8682 177.327 54.9535 181.606 54.9535C185.917 54.9535 189.017 53.8527 190.909 51.6512C192.831 49.4496 193.793 45.9612 193.793 41.186V3.7907Z" fill="#36B37E"/>
</g>
</g>
<defs>
<clipPath id="clip0_3_38">
<rect width="500" height="72" fill="white"/>
</clipPath>
<clipPath id="clip1_3_38">
<rect width="499" height="108" fill="white" transform="translate(0 -22)"/>
</clipPath>
</defs>
</svg>
