<?xml version="1.0" encoding="utf-8" ?>
<svg xmlns="http://www.w3.org/2000/svg" xmlns:xlink="http://www.w3.org/1999/xlink" width="1024" height="1024">
	<path fill="#E2E2E2" d="M0 0L1024 0L1024 1024L0 1024L0 0Z"/>
	<path d="M312.442 266.218C316.803 265.974 321.267 266.016 325.634 266.096C367.008 266.848 407.032 278.854 439.437 305.252C446.315 310.856 452.486 317.12 458.625 323.506C449.742 330.336 440.452 336.778 431.399 343.389C422.351 349.997 413.329 356.962 403.889 362.994C393.215 353.892 382.758 346.458 369.781 340.918C341.067 328.659 304.291 328.772 275.42 340.421Q274.092 340.959 272.777 341.53Q271.462 342.102 270.162 342.705Q268.862 343.309 267.578 343.945Q266.293 344.581 265.025 345.249Q263.757 345.917 262.505 346.616Q261.254 347.315 260.021 348.045Q258.787 348.775 257.572 349.536Q256.358 350.297 255.162 351.088Q253.967 351.878 252.791 352.699Q251.616 353.519 250.461 354.368Q249.306 355.217 248.173 356.095Q247.04 356.973 245.929 357.879Q244.818 358.784 243.73 359.718Q242.642 360.651 241.578 361.611Q240.514 362.571 239.473 363.557Q238.433 364.543 237.418 365.555Q236.403 366.567 235.413 367.604Q234.423 368.64 233.46 369.702Q232.496 370.763 231.559 371.848Q230.623 372.932 229.713 374.04Q228.804 375.148 227.922 376.278Q227.04 377.408 226.187 378.56Q225.334 379.712 224.51 380.885Q223.686 382.057 222.891 383.25Q222.096 384.443 221.331 385.655Q220.567 386.868 219.832 388.099Q219.098 389.329 218.395 390.578Q217.691 391.827 217.019 393.093Q216.347 394.359 215.707 395.642Q215.066 396.924 214.458 398.222Q213.85 399.52 213.274 400.833Q212.699 402.145 212.156 403.472C199.894 432.724 199.611 468.034 211.754 497.379Q212.3 498.714 212.878 500.036Q213.456 501.358 214.067 502.664Q214.678 503.971 215.321 505.263Q215.964 506.554 216.639 507.829Q217.314 509.104 218.02 510.362Q218.726 511.62 219.463 512.86Q220.2 514.101 220.967 515.322Q221.735 516.544 222.532 517.746Q223.33 518.948 224.156 520.13Q224.983 521.313 225.839 522.474Q226.695 523.635 227.579 524.775Q228.463 525.915 229.375 527.033Q230.287 528.15 231.227 529.245Q232.166 530.34 233.133 531.411Q234.099 532.483 235.091 533.53Q236.084 534.577 237.102 535.599Q238.12 536.621 239.163 537.618Q240.206 538.614 241.273 539.585Q242.34 540.555 243.431 541.499Q244.522 542.443 245.636 543.36Q246.75 544.277 247.886 545.165Q249.023 546.054 250.18 546.915Q251.338 547.775 252.517 548.607Q253.696 549.439 254.895 550.241Q256.094 551.043 257.312 551.815Q258.531 552.588 259.768 553.33Q261.005 554.072 262.26 554.783Q263.515 555.494 264.788 556.174Q266.06 556.854 267.349 557.502Q268.638 558.151 269.942 558.767Q271.246 559.383 272.566 559.967Q273.885 560.551 275.218 561.102C304.448 572.975 342.561 573.509 371.746 561.137C394.589 551.453 414.45 535.144 426.769 513.42C430.378 507.055 433.082 500.37 435.842 493.612C406.423 494.185 376.938 493.691 347.513 493.591L323.101 493.551C316.591 493.551 309.853 493.92 303.43 492.705C297.75 491.63 292.234 488.465 287.993 484.576Q287.371 484.008 286.778 483.41Q286.185 482.813 285.622 482.186Q285.06 481.559 284.529 480.905Q283.998 480.251 283.501 479.571Q283.004 478.892 282.541 478.188Q282.078 477.484 281.651 476.758Q281.224 476.033 280.834 475.286Q280.443 474.54 280.091 473.775Q279.738 473.01 279.424 472.229Q279.11 471.448 278.835 470.651Q278.561 469.855 278.326 469.046Q278.092 468.238 277.898 467.418Q277.704 466.598 277.551 465.77Q277.398 464.942 277.287 464.107Q277.176 463.272 277.106 462.433Q277.037 461.594 277.009 460.752C276.711 451.467 280.745 441.412 287.252 434.802C291.88 430.1 297.501 427.46 303.999 426.483C311.608 425.34 319.795 426.044 327.5 426.063L368.111 426.051L513.59 426.06C518.903 401.693 525.277 381.528 537.475 359.604C561.346 316.698 598.535 287.327 645.639 273.934Q648.015 273.244 650.407 272.613Q652.799 271.982 655.206 271.41Q657.612 270.837 660.032 270.325Q662.453 269.812 664.885 269.359Q667.317 268.906 669.759 268.513Q672.202 268.12 674.653 267.787Q677.104 267.455 679.563 267.182Q682.022 266.91 684.487 266.699Q686.952 266.487 689.421 266.336Q691.89 266.185 694.363 266.095Q696.835 266.005 699.309 265.976Q701.782 265.946 704.256 265.978Q706.73 266.01 709.202 266.102Q711.674 266.195 714.143 266.348Q716.612 266.502 719.077 266.716Q721.542 266.93 724 267.205Q726.459 267.479 728.91 267.815Q731.361 268.15 733.803 268.545Q736.245 268.941 738.677 269.396Q741.108 269.851 743.528 270.367Q745.948 270.882 748.354 271.456Q750.76 272.031 753.151 272.664Q755.543 273.298 757.918 273.99Q760.293 274.682 762.65 275.433Q765.007 276.183 767.345 276.992Q769.684 277.8 772.001 278.666Q774.319 279.531 776.614 280.454Q778.91 281.376 781.182 282.355Q783.454 283.333 785.701 284.368Q787.948 285.402 790.17 286.491Q792.391 287.58 794.584 288.724Q796.778 289.868 798.943 291.065Q800.878 292.209 802.783 293.402Q804.688 294.594 806.563 295.834Q808.438 297.073 810.282 298.359Q812.125 299.646 813.936 300.978Q815.746 302.31 817.523 303.686Q819.3 305.063 821.042 306.484Q822.783 307.905 824.489 309.369Q826.194 310.833 827.863 312.339Q829.531 313.845 831.161 315.393Q832.792 316.94 834.382 318.528Q835.973 320.116 837.524 321.743Q839.075 323.37 840.584 325.036Q842.094 326.701 843.561 328.404Q845.028 330.107 846.453 331.846Q847.877 333.585 849.257 335.359Q850.638 337.133 851.973 338.941Q853.309 340.749 854.599 342.589Q855.888 344.43 857.132 346.303Q858.375 348.175 859.571 350.078Q860.767 351.981 861.915 353.914Q863.063 355.846 864.163 357.807Q865.262 359.767 866.312 361.755Q867.362 363.742 868.362 365.755Q869.362 367.768 870.311 369.806Q871.26 371.843 872.158 373.904Q873.056 375.965 873.902 378.047Q874.748 380.129 875.542 382.232Q876.335 384.335 877.076 386.458Q877.817 388.58 878.504 390.72Q879.192 392.86 879.825 395.016Q880.459 397.173 881.039 399.345Q881.618 401.516 882.143 403.702C894.028 451.448 887.787 504.749 862.182 547.131C837.062 588.711 800.077 617.145 752.628 628.605C740.6 631.511 728.109 633.002 715.777 633.841C672.567 636.782 634.613 628.07 597.571 605.484C555.54 579.856 529.736 540.964 518.281 493.527L503.712 493.573Q503.106 496.411 502.41 499.228Q501.713 502.045 500.926 504.838Q500.14 507.631 499.264 510.398Q498.389 513.164 497.425 515.901Q496.461 518.638 495.41 521.343Q494.358 524.048 493.221 526.717Q492.084 529.387 490.861 532.019Q489.639 534.651 488.333 537.242Q487.027 539.833 485.638 542.381Q484.249 544.929 482.78 547.431Q481.31 549.933 479.761 552.387Q478.212 554.841 476.585 557.244Q474.959 559.647 473.255 561.996Q471.552 564.346 469.775 566.639Q467.997 568.933 466.147 571.169Q464.297 573.404 462.376 575.579C430.269 611.641 384.19 631.996 336.329 634.832C283.965 637.935 235.131 622.795 195.839 587.703C160.675 556.299 139.304 508.257 136.775 461.429Q136.641 459.13 136.564 456.829Q136.487 454.527 136.467 452.225Q136.446 449.922 136.482 447.62Q136.519 445.317 136.612 443.017Q136.705 440.716 136.855 438.418Q137.005 436.12 137.211 433.827Q137.417 431.533 137.68 429.246Q137.943 426.958 138.262 424.678Q138.582 422.397 138.957 420.125Q139.332 417.853 139.763 415.591Q140.194 413.329 140.681 411.079Q141.168 408.828 141.71 406.59Q142.252 404.352 142.849 402.128Q143.446 399.904 144.098 397.696Q144.75 395.487 145.456 393.295Q146.162 391.104 146.922 388.93Q147.681 386.756 148.494 384.602Q149.308 382.448 150.174 380.314Q151.04 378.18 151.958 376.069Q152.876 373.957 153.846 371.869Q154.816 369.78 155.838 367.716Q156.859 365.652 157.931 363.614Q159.003 361.576 160.124 359.565Q161.246 357.554 162.417 355.572Q163.588 353.589 164.807 351.636Q166.027 349.682 167.294 347.76Q168.561 345.837 169.876 343.946Q171.19 342.056 172.55 340.198Q173.911 338.34 175.317 336.516Q176.723 334.692 178.173 332.904Q179.623 331.115 181.117 329.363Q182.611 327.611 184.148 325.896C218.308 288.155 261.834 268.678 312.442 266.218Z"/>
	<path fill="#E2E2E2" d="M693.968 331.706C703.505 330.471 714.087 331.668 723.566 333.177C753.639 337.964 780.222 352.125 798.225 377.179C821.034 408.921 825.429 448.687 819.276 486.353C813.725 486.116 808.14 486.206 802.583 486.179C802.875 475.089 802.433 463.956 802.822 452.885C803.001 447.783 804.013 442.78 804.299 437.663C804.42 435.501 804.481 433.225 804.05 431.093C802.941 425.607 800.212 420.388 798.479 415.088C797.53 412.188 797.053 408.689 795.61 406.008C794.932 404.747 793.835 403.587 792.884 402.524C793.049 397.096 792.698 394.374 790.198 389.538C790.139 390.391 790.051 391.07 789.777 391.887C788.083 396.945 789.558 401.662 786.035 406.235C785.596 406.806 785.221 407.202 784.931 407.863L785.63 409.382L784.671 408.309C784.802 409.358 784.864 410.489 784.586 411.523C784.013 413.655 782.776 415.695 781.997 417.772C780.439 421.927 779.264 426.389 778.49 430.757C777.638 435.567 777.953 440.405 778.286 445.249C779.062 446.442 779.77 446.48 781.075 446.983C782.289 451.865 782.42 478.609 781.265 482.917L780.462 482.505L781.533 482.136L780.735 481.964C779.799 471.971 780.571 461.28 780.609 451.209C778.115 451.243 774.916 451.599 772.497 451.152C770.703 450.821 770.933 448.853 770.101 447.424C768.622 444.887 760.962 441.6 760.575 440.455C760.179 439.28 760.675 438.847 759.852 437.696C758.611 437.442 757.951 437.432 756.731 437.777C756.298 438.854 756.763 439.306 757.139 440.365C755.377 442.582 750.275 443.882 747.704 445.594C745.574 447.013 745.61 448.987 745.213 451.309C743.679 452.322 741.335 451.966 739.495 452.012L739.316 486.355L732.758 486.322C730.499 482.868 728.365 479.323 726.185 475.818C724.4 471.783 717.739 458.027 718.607 454.47C719.37 454.101 720.178 453.742 720.892 453.286C721.964 452.6 722.657 451.862 722.778 450.523C722.876 449.43 722.491 448.529 721.848 447.692C720.085 446.946 718.265 447.206 716.397 447.299Q711.92 422.164 710.557 396.669C710.324 392.835 709.54 388.413 709.865 384.611C709.949 383.624 710.421 382.802 710.888 381.946C711.456 380.905 711.648 380.798 711.655 379.572L709.893 379.263L709.818 378.723C710.226 378.378 710.681 378.024 711.013 377.601C712.072 376.248 710.92 369.006 710.773 367.104L706.486 364.916C706.512 361.533 706.411 358.271 706.042 354.907C704.956 357.821 704.857 360.99 704.074 364.018C702.54 365.23 699.842 367.3 699.143 369.163C698.347 371.285 700.276 380.039 700.336 382.884C700.437 387.626 698.403 416.491 696.949 419.227L695.428 418.987L694.924 419.73C694.843 421.29 695.396 422.197 696.105 423.525C697.521 426.179 693.777 443.896 693.141 447.531C691.571 447.543 689.365 447.333 687.961 448.175C686.775 448.885 686.736 449.401 686.439 450.64C687.334 453.604 689.03 454.846 691.48 456.628C688.506 466.396 685.167 478.318 678.497 486.249C677.467 487.474 676.709 488.093 675.112 488.247L674.015 487.277C671.934 482.136 672.897 475.525 672.918 470.038C672.967 457.522 673.293 443.691 663.582 434.267C659.595 430.397 654.636 427.988 649.245 426.835C640.932 425.057 631.062 426.044 622.565 426.064L580.377 426.051C584.834 407.385 593.621 388.944 606.074 374.283C628.244 348.182 660.243 334.41 693.968 331.706Z"/>
	<path fill="#E2E2E2" d="M585.169 493.716L816.591 494.485C810.81 512.038 799.311 526.885 786.232 539.618C773.132 552.074 756.635 560.716 739.217 565.34C707.384 573.792 666.751 571.46 638.01 554.532C617.992 542.742 602.754 527.128 591.436 506.905C589.174 502.864 586.325 498.188 585.169 493.716Z"/>
	<path fill="#E2E2E2" d="M700.709 476.575C703.625 476.307 706.389 476.425 709.303 476.603C713.606 479.377 716.054 483.26 718.405 487.653L707.375 487.73C702.047 487.462 696.601 487.704 691.252 487.632Q692.116 486.013 693.15 484.497Q694.184 482.981 695.377 481.587Q696.569 480.193 697.906 478.936Q699.243 477.679 700.709 476.575Z"/>
	<path fill="#E2E2E2" d="M788.33 432.489C790.195 432.208 792.245 432.213 793.774 433.492Q793.961 433.649 794.131 433.825Q794.301 434.002 794.451 434.195Q794.601 434.389 794.729 434.597Q794.857 434.805 794.963 435.026Q795.068 435.247 795.149 435.478Q795.23 435.709 795.285 435.947Q795.341 436.186 795.371 436.428Q795.401 436.671 795.405 436.916C795.46 439.24 793.926 441.188 792.376 442.739C791.746 442.777 791.118 442.818 790.488 442.815C788.696 442.808 787.484 442.245 786.259 440.949C785.147 439.773 784.644 438.421 784.883 436.782C785.202 434.586 786.672 433.682 788.33 432.489Z"/>
	<path fill="#E2E2E2" d="M760.711 466.496C762.479 466.436 764.702 466.119 766.278 467.07C767.275 467.672 768.098 468.677 768.174 469.884C768.263 471.312 767.447 472.619 766.453 473.55C764.688 473.722 762.508 474.122 760.866 473.232C760.149 472.843 759.552 472.333 759.34 471.537C758.827 469.614 759.737 468.083 760.711 466.496Z"/>
	<path fill="#E2E2E2" d="M745.741 467.081C747.58 466.972 750.302 466.544 752.056 467.082C753.379 467.489 753.574 467.792 754.28 468.882C754.45 470.577 754.154 471.58 753.557 473.162C752.06 473.581 750.244 473.961 748.689 473.818C747.364 473.696 746.797 473.274 745.954 472.304C745.187 470.504 745.51 468.98 745.741 467.081Z"/>
	<path fill="#E2E2E2" d="M748.301 479.588C750.092 479.57 752.207 479.6 753.542 480.997C754.54 482.042 754.467 482.516 754.374 483.834C753.479 485.288 752.713 485.77 751.21 486.546C750.667 486.558 750.122 486.577 749.579 486.561C748.087 486.517 746.458 486 745.559 484.705C744.821 483.641 744.916 483.274 745.066 482.069C746.005 480.661 746.765 480.256 748.301 479.588Z"/>
	<path fill="#E2E2E2" d="M759.813 479.688C762.373 479.567 765.303 478.967 767.45 480.525C768.087 482.112 767.501 483.963 767.196 485.598C765.874 485.658 764.544 485.731 763.221 485.719C761.492 485.704 760.771 485.326 759.593 484.109C759.158 482.5 759.483 481.27 759.813 479.688Z"/>
	<path fill="#E2E2E2" d="M745.494 456.566L747.972 456.516C750.469 456.466 752.636 456.096 754.555 457.945C754.67 459.438 754.298 459.681 753.508 460.91C752.379 461.279 751.189 461.45 750.012 461.584C748.287 461.781 747.252 461.647 745.864 460.501C745.093 459.045 745.275 458.118 745.494 456.566Z"/>
	<path fill="#E2E2E2" d="M761.092 457.173C761.228 457.165 761.365 457.155 761.502 457.149C761.729 457.139 761.957 457.135 762.185 457.124C763.204 457.075 764.299 456.948 765.311 457.118C766.894 457.384 767.947 458.258 768.806 459.541L768.614 460.377C767.771 461.004 766.935 461.328 765.96 461.706C764.73 461.784 763.146 462.015 761.976 461.557C760.546 460.997 759.17 460.288 758.578 458.805C759.341 457.582 759.707 457.656 761.092 457.173Z"/>
	<path fill="#E2E2E2" d="M755.381 447.028C758.456 446.866 760.631 447.334 763.279 448.918L763.278 449.48L762.059 449.984C759.555 450.023 755.566 450.458 753.489 449.002L753.53 448.224L755.381 447.028Z"/>
	<path fill="#E2E2E2" d="M789.452 469.292C790.794 469.465 791.547 469.482 792.618 470.387C793.458 472.052 793.034 473.685 792.811 475.459C791.429 475.443 790.666 475.481 789.436 474.761C788.557 473.154 789.182 471.042 789.452 469.292Z"/>
	<path fill="#E2E2E2" d="M790.758 454.648C792.268 455.351 792.557 455.677 793.129 457.2C793.005 458.802 792.705 459.416 791.849 460.709C791.468 460.592 790.816 460.414 790.489 460.205C789.508 459.575 789.433 458.828 789.171 457.794C789.472 456.35 789.763 455.74 790.758 454.648Z"/>
	<path fill="#E2E2E2" d="M688.442 448.9C689.765 448.88 690.669 448.895 691.944 449.323C692.471 450.746 691.646 452.328 691.205 453.775C689.944 453.854 690.04 453.608 689.109 452.848C688.399 451.303 688.306 450.596 688.442 448.9Z"/>
	<path d="M738.425 670.984L760.71 670.976C770.196 698.752 781.703 725.91 790.979 753.769C784.033 754.079 777.03 753.898 770.077 753.876Q767.261 745.897 764.614 737.86Q749.543 737.892 734.472 737.742Q731.46 745.977 728.599 754.266C714.105 754.901 699.464 754.218 684.939 754.471C676.853 742.711 668.736 731.379 662.062 718.722C662.417 730.473 662.142 742.313 662.124 754.073L648.967 754.095L642.098 754.136C641.77 726.591 642.208 698.99 642.219 671.439C653.659 671.369 675.579 669.541 685.754 673.951Q686.289 674.178 686.812 674.432Q687.335 674.687 687.845 674.968Q688.354 675.249 688.848 675.555Q689.343 675.862 689.82 676.193Q690.298 676.525 690.758 676.881Q691.219 677.236 691.66 677.615Q692.101 677.994 692.523 678.395Q692.944 678.796 693.344 679.218Q693.744 679.64 694.122 680.082Q694.5 680.524 694.855 680.985Q695.21 681.446 695.54 681.924Q695.871 682.403 696.177 682.897Q696.483 683.392 696.763 683.902Q697.042 684.412 697.296 684.935Q697.549 685.459 697.775 685.995Q698.002 686.53 698.2 687.077C700.72 693.879 700.541 702.025 697.359 708.57C694.491 714.469 690.25 717.458 684.198 719.423C690.401 729.487 699.936 743.188 707.45 752.052C717.524 724.964 729.096 698.345 738.425 670.984Z"/>
	<path fill="#E2E2E2" d="M749.255 690.772C752.131 693.321 757.758 716.574 759.376 721.882L751.064 721.932L739.645 721.962C742.55 711.486 745.988 701.14 749.255 690.772Z"/>
	<path fill="#E2E2E2" d="M662.361 686.862C666.913 686.878 671.502 686.812 675.382 689.588C677.165 690.863 678.697 692.775 678.982 695.006C679.383 698.133 678.144 701.162 676.345 703.639C671.914 706.82 667.527 706.599 662.31 706.667L662.361 686.862Z"/>
	<path d="M583.432 668.781Q584.53 668.745 585.628 668.762Q586.726 668.78 587.822 668.851Q588.918 668.923 590.009 669.048Q591.1 669.173 592.184 669.352Q593.268 669.531 594.341 669.762Q595.415 669.994 596.476 670.278Q597.537 670.562 598.583 670.898Q599.628 671.234 600.656 671.621Q601.684 672.008 602.692 672.445Q603.7 672.881 604.685 673.367Q605.67 673.853 606.63 674.387Q607.59 674.92 608.522 675.5Q609.455 676.08 610.358 676.706Q611.261 677.331 612.132 678Q613.003 678.668 613.841 679.379Q614.678 680.09 615.479 680.841Q616.281 681.592 617.044 682.382Q617.808 683.171 618.532 683.997Q619.256 684.823 619.938 685.684Q620.621 686.544 621.26 687.437Q621.899 688.33 622.494 689.254Q623.089 690.177 623.637 691.129Q624.186 692.08 624.687 693.057Q625.189 694.035 625.641 695.035Q626.094 696.036 626.497 697.058Q626.9 698.079 627.252 699.12Q627.605 700.16 627.905 701.216Q628.206 702.273 628.455 703.342Q628.703 704.412 628.899 705.493Q629.095 706.574 629.237 707.663Q629.38 708.752 629.468 709.847Q629.557 710.941 629.592 712.039Q629.627 713.137 629.608 714.235Q629.589 715.333 629.516 716.429Q629.443 717.525 629.316 718.616Q629.189 719.707 629.009 720.79Q628.829 721.874 628.596 722.947Q628.363 724.02 628.078 725.081Q627.792 726.141 627.455 727.187Q627.118 728.232 626.729 729.259Q626.341 730.287 625.903 731.294Q625.465 732.301 624.978 733.285Q624.491 734.27 623.956 735.229Q623.421 736.188 622.84 737.12Q622.258 738.052 621.632 738.954Q621.006 739.856 620.336 740.727Q619.666 741.597 618.954 742.433Q618.242 743.27 617.49 744.07Q616.738 744.871 615.947 745.633Q615.157 746.396 614.33 747.118Q613.503 747.841 612.642 748.523Q611.78 749.204 610.886 749.842Q609.992 750.48 609.068 751.074Q608.144 751.667 607.192 752.215Q606.24 752.762 605.262 753.262Q604.284 753.762 603.283 754.213Q602.281 754.665 601.259 755.066Q600.237 755.468 599.196 755.819Q598.155 756.17 597.099 756.469Q596.042 756.769 594.972 757.016Q593.902 757.263 592.821 757.458Q591.74 757.652 590.651 757.793Q589.561 757.934 588.467 758.021Q587.372 758.109 586.274 758.142Q585.178 758.175 584.082 758.155Q582.985 758.135 581.891 758.061Q580.797 757.987 579.708 757.859Q578.619 757.731 577.538 757.55Q576.456 757.37 575.385 757.136Q574.314 756.902 573.255 756.616Q572.197 756.331 571.154 755.993Q570.11 755.656 569.085 755.267Q568.059 754.879 567.054 754.441Q566.049 754.003 565.066 753.516Q564.084 753.03 563.126 752.495Q562.169 751.961 561.239 751.38Q560.309 750.8 559.408 750.174Q558.508 749.549 557.639 748.88Q556.77 748.211 555.935 747.5Q555.1 746.789 554.301 746.039Q553.502 745.288 552.741 744.499Q551.979 743.71 551.258 742.884Q550.536 742.059 549.856 741.199Q549.175 740.339 548.538 739.447Q547.9 738.555 547.307 737.632Q546.715 736.71 546.168 735.76Q545.621 734.809 545.121 733.833Q544.621 732.857 544.17 731.858Q543.719 730.859 543.317 729.838Q542.915 728.818 542.564 727.779Q542.213 726.741 541.913 725.686Q541.613 724.631 541.365 723.563Q541.117 722.495 540.922 721.416Q540.727 720.337 540.585 719.25Q540.443 718.163 540.354 717.07Q540.266 715.977 540.231 714.881Q540.196 713.785 540.215 712.689Q540.234 711.592 540.307 710.498Q540.379 709.404 540.505 708.315Q540.632 707.226 540.811 706.144Q540.99 705.062 541.223 703.991Q541.455 702.919 541.739 701.86Q542.024 700.801 542.36 699.758Q542.696 698.714 543.083 697.688Q543.47 696.662 543.907 695.656Q544.343 694.65 544.829 693.667Q545.314 692.684 545.847 691.726Q546.38 690.768 546.96 689.837Q547.539 688.906 548.164 688.004Q548.788 687.103 549.456 686.233Q550.124 685.364 550.833 684.528Q551.543 683.692 552.293 682.892Q553.042 682.092 553.831 681.329Q554.619 680.567 555.443 679.844Q556.268 679.122 557.127 678.44Q557.986 677.758 558.877 677.12Q559.768 676.481 560.69 675.887Q561.611 675.293 562.561 674.745Q563.511 674.197 564.486 673.696Q565.461 673.195 566.46 672.742Q567.459 672.289 568.479 671.886Q569.498 671.483 570.536 671.131Q571.575 670.778 572.629 670.477Q573.683 670.176 574.751 669.926Q575.819 669.677 576.898 669.481Q577.976 669.284 579.063 669.141Q580.151 668.997 581.243 668.907Q582.336 668.817 583.432 668.781Z"/>
	<path fill="#E2E2E2" d="M583.756 688.664C589.234 688.489 594.355 689.648 598.813 692.965C603.98 696.809 607.098 702.618 607.933 708.958C608.881 716.15 607.271 723.796 602.792 729.588C598.521 735.112 593.145 737.48 586.407 738.347C581.11 738.493 575.79 737.205 571.457 734.058C566.016 730.106 563.054 723.919 562.18 717.364C561.233 710.257 562.792 702.83 567.299 697.141C571.598 691.716 577.073 689.427 583.756 688.664Z"/>
	<path d="M265.673 669.067Q266.757 668.943 267.846 668.873Q268.935 668.802 270.026 668.786Q271.117 668.769 272.207 668.806Q273.298 668.843 274.385 668.934Q275.473 669.024 276.554 669.168Q277.636 669.312 278.709 669.509Q279.782 669.706 280.844 669.956Q281.907 670.205 282.955 670.507Q284.004 670.808 285.036 671.161Q286.069 671.514 287.083 671.917Q288.097 672.32 289.09 672.773Q290.083 673.225 291.052 673.726Q292.021 674.227 292.965 674.775Q293.909 675.323 294.824 675.917Q295.74 676.51 296.625 677.148Q297.51 677.786 298.363 678.467Q299.215 679.148 300.034 679.87Q300.852 680.592 301.633 681.353Q302.415 682.114 303.158 682.913Q303.902 683.712 304.605 684.547Q305.308 685.381 305.969 686.249Q306.63 687.117 307.248 688.017Q307.865 688.916 308.438 689.845Q309.011 690.774 309.537 691.729Q310.063 692.685 310.542 693.666Q311.02 694.646 311.45 695.649Q311.88 696.652 312.26 697.675Q312.64 698.698 312.969 699.738Q313.298 700.779 313.576 701.834Q313.853 702.889 314.078 703.957Q314.304 705.024 314.476 706.102Q314.649 707.179 314.768 708.264Q314.887 709.349 314.953 710.438Q315.019 711.527 315.031 712.618Q315.043 713.709 315.001 714.8Q314.96 715.89 314.865 716.977Q314.769 718.064 314.621 719.145Q314.472 720.226 314.271 721.298Q314.069 722.371 313.815 723.432Q313.561 724.493 313.255 725.54Q312.949 726.588 312.592 727.619Q312.235 728.65 311.827 729.662Q311.42 730.674 310.963 731.665Q310.506 732.656 310.001 733.623Q309.496 734.591 308.944 735.532Q308.393 736.473 307.795 737.386Q307.197 738.299 306.556 739.182Q305.914 740.064 305.229 740.914Q304.545 741.764 303.82 742.579Q303.094 743.394 302.33 744.172Q301.565 744.951 300.763 745.691Q299.961 746.431 299.124 747.13Q298.286 747.83 297.415 748.487Q296.545 749.145 295.642 749.759Q294.74 750.372 293.809 750.941Q292.878 751.51 291.92 752.032Q290.962 752.554 289.979 753.029Q288.996 753.503 287.992 753.929Q286.987 754.354 285.962 754.73Q284.938 755.105 283.896 755.43Q282.854 755.755 281.798 756.028Q280.742 756.301 279.673 756.522Q278.604 756.743 277.526 756.91Q276.448 757.078 275.363 757.193Q274.284 757.307 273.2 757.368Q272.117 757.429 271.031 757.437Q269.946 757.445 268.862 757.4Q267.777 757.355 266.697 757.257Q265.616 757.159 264.541 757.008Q263.466 756.857 262.4 756.654Q261.334 756.45 260.279 756.195Q259.224 755.94 258.183 755.633Q257.142 755.327 256.117 754.969Q255.092 754.612 254.086 754.205Q253.08 753.799 252.095 753.343Q251.11 752.887 250.149 752.384Q249.187 751.881 248.251 751.331Q247.315 750.781 246.408 750.187Q245.5 749.592 244.622 748.953Q243.745 748.315 242.9 747.634Q242.054 746.953 241.243 746.232Q240.432 745.511 239.658 744.75Q238.883 743.99 238.147 743.193Q237.41 742.396 236.713 741.564Q236.017 740.732 235.362 739.867Q234.707 739.001 234.095 738.105Q233.483 737.209 232.915 736.283Q232.348 735.358 231.827 734.406Q231.305 733.455 230.831 732.479Q230.357 731.502 229.931 730.504Q229.505 729.506 229.129 728.488Q228.752 727.47 228.426 726.435Q228.1 725.4 227.824 724.35Q227.549 723.3 227.326 722.238Q227.102 721.176 226.931 720.104Q226.76 719.033 226.641 717.954Q226.522 716.875 226.457 715.792Q226.391 714.709 226.378 713.623Q226.366 712.538 226.406 711.454Q226.447 710.369 226.541 709.288Q226.634 708.207 226.78 707.131Q226.927 706.056 227.126 704.989Q227.324 703.922 227.575 702.866Q227.826 701.81 228.128 700.768Q228.43 699.726 228.783 698.699Q229.136 697.673 229.538 696.665Q229.941 695.657 230.392 694.67Q230.844 693.683 231.343 692.72Q231.842 691.756 232.388 690.818Q232.934 689.88 233.525 688.97Q234.116 688.06 234.751 687.179Q235.385 686.299 236.063 685.451Q236.74 684.603 237.458 683.789Q238.175 682.975 238.932 682.197Q239.689 681.419 240.483 680.679Q241.277 679.939 242.106 679.239Q242.935 678.539 243.798 677.88Q244.66 677.222 245.554 676.606Q246.448 675.99 247.37 675.419Q248.293 674.848 249.243 674.322Q250.192 673.797 251.167 673.318Q252.141 672.84 253.137 672.41Q254.134 671.98 255.15 671.599Q256.166 671.218 257.2 670.888Q258.234 670.557 259.282 670.277Q260.331 669.998 261.392 669.77Q262.453 669.542 263.524 669.366Q264.595 669.19 265.673 669.067Z"/>
	<path fill="#E2E2E2" d="M268.618 689.415Q269.197 689.362 269.778 689.338Q270.36 689.314 270.941 689.318Q271.523 689.322 272.104 689.354Q272.685 689.386 273.263 689.446Q273.842 689.507 274.416 689.595Q274.991 689.683 275.561 689.8Q276.131 689.916 276.695 690.059Q277.259 690.203 277.815 690.374Q278.371 690.545 278.918 690.743Q279.465 690.94 280.001 691.164Q280.538 691.389 281.064 691.638Q281.589 691.888 282.101 692.163Q282.614 692.438 283.112 692.738Q283.611 693.038 284.094 693.361Q284.578 693.685 285.045 694.031Q285.512 694.378 285.962 694.747Q286.412 695.115 286.843 695.506Q287.274 695.896 287.686 696.307Q288.098 696.717 288.49 697.148Q288.881 697.578 289.251 698.027Q289.621 698.475 289.969 698.942Q290.317 699.408 290.642 699.89Q290.966 700.373 291.267 700.871Q291.568 701.368 291.845 701.88Q292.121 702.392 292.373 702.917Q292.624 703.441 292.849 703.977Q293.075 704.513 293.274 705.06Q293.473 705.606 293.646 706.162Q293.818 706.718 293.964 707.281Q294.109 707.844 294.227 708.414Q294.344 708.983 294.434 709.558Q294.524 710.133 294.586 710.711Q294.648 711.289 294.682 711.87Q294.715 712.451 294.721 713.032Q294.727 713.614 294.704 714.195Q294.681 714.776 294.63 715.356Q294.579 715.935 294.5 716.512Q294.421 717.088 294.314 717.66Q294.207 718.231 294.073 718.797Q293.938 719.363 293.777 719.922Q293.615 720.481 293.426 721.031Q293.237 721.581 293.022 722.121Q292.807 722.662 292.565 723.191Q292.324 723.72 292.057 724.237Q291.791 724.754 291.499 725.258Q291.208 725.761 290.892 726.25Q290.577 726.738 290.238 727.211Q289.899 727.684 289.537 728.139Q289.176 728.595 288.792 729.033Q288.409 729.47 288.005 729.889Q287.601 730.307 287.177 730.706Q286.754 731.104 286.311 731.481Q285.868 731.859 285.408 732.214Q284.947 732.57 284.47 732.902Q283.993 733.235 283.5 733.544Q283.007 733.853 282.5 734.138Q281.993 734.422 281.472 734.682Q280.952 734.942 280.42 735.176Q279.887 735.41 279.344 735.618Q278.801 735.826 278.248 736.008Q277.695 736.189 277.135 736.344Q276.574 736.498 276.006 736.625Q275.439 736.752 274.865 736.851Q274.292 736.951 273.715 737.022Q273.322 737.07 272.928 737.106Q272.534 737.141 272.138 737.164Q271.743 737.186 271.348 737.196Q270.952 737.205 270.556 737.201Q270.16 737.198 269.765 737.181Q269.369 737.164 268.974 737.134Q268.58 737.104 268.186 737.062Q267.793 737.019 267.401 736.963Q267.009 736.907 266.619 736.838Q266.229 736.769 265.842 736.688Q265.455 736.606 265.07 736.512Q264.686 736.417 264.305 736.31Q263.924 736.203 263.546 736.084Q263.169 735.964 262.796 735.832Q262.422 735.7 262.054 735.556Q261.685 735.411 261.322 735.255Q260.958 735.099 260.6 734.93Q260.241 734.762 259.889 734.582Q259.536 734.402 259.19 734.21Q258.844 734.019 258.504 733.816Q258.164 733.613 257.831 733.399Q257.498 733.185 257.172 732.96Q256.847 732.735 256.529 732.499Q256.21 732.263 255.9 732.017Q255.59 731.771 255.288 731.515Q254.987 731.259 254.693 730.993Q254.4 730.727 254.116 730.452Q253.832 730.176 253.557 729.891Q253.282 729.607 253.016 729.313Q252.751 729.019 252.495 728.717Q252.24 728.415 251.994 728.104Q251.749 727.793 251.514 727.475Q251.279 727.156 251.055 726.83Q250.83 726.504 250.617 726.171Q250.403 725.837 250.201 725.497Q249.999 725.157 249.808 724.81Q249.617 724.463 249.437 724.111Q249.258 723.758 249.09 723.399Q248.923 723.041 248.767 722.677Q248.611 722.313 248.468 721.944Q248.324 721.575 248.193 721.201Q248.061 720.828 247.942 720.45Q247.824 720.073 247.717 719.691Q247.611 719.31 247.517 718.926Q247.423 718.541 247.343 718.153Q247.262 717.766 247.194 717.376Q247.126 716.986 247.07 716.594Q247.015 716.202 246.973 715.808Q246.931 715.415 246.902 715.02Q246.873 714.625 246.857 714.23Q246.841 713.834 246.838 713.438Q246.835 713.042 246.845 712.647Q246.855 712.251 246.878 711.856Q246.901 711.461 246.938 711.066Q246.974 710.672 247.023 710.279Q247.072 709.887 247.135 709.496Q247.197 709.105 247.272 708.716Q247.347 708.328 247.435 707.942Q247.523 707.556 247.624 707.173Q247.724 706.79 247.837 706.411Q247.951 706.031 248.076 705.656Q248.202 705.281 248.34 704.91Q248.478 704.539 248.628 704.172Q248.779 703.806 248.941 703.445Q249.103 703.084 249.277 702.728Q249.451 702.373 249.637 702.023Q249.823 701.674 250.02 701.331Q250.217 700.987 250.426 700.651Q250.634 700.314 250.854 699.985Q251.073 699.656 251.304 699.334Q251.534 699.012 251.775 698.697Q252.015 698.383 252.266 698.077Q252.517 697.771 252.778 697.473Q253.039 697.176 253.31 696.887Q253.581 696.598 253.861 696.318Q254.141 696.039 254.43 695.768Q254.719 695.498 255.017 695.238Q255.315 694.977 255.622 694.726Q255.928 694.476 256.243 694.235Q256.557 693.995 256.879 693.765Q257.202 693.535 257.532 693.316Q257.861 693.097 258.198 692.889Q258.535 692.681 258.878 692.485Q259.222 692.288 259.572 692.103Q259.921 691.917 260.277 691.744Q260.633 691.57 260.994 691.408Q261.355 691.246 261.722 691.097Q262.088 690.947 262.459 690.809Q262.831 690.672 263.206 690.547Q263.582 690.421 263.961 690.309Q264.34 690.196 264.723 690.096Q265.106 689.996 265.493 689.908Q265.879 689.821 266.267 689.746Q266.656 689.672 267.047 689.61Q267.438 689.548 267.831 689.499Q268.224 689.451 268.618 689.415Z"/>
	<path d="M470.868 671.523C483.535 671.464 507.111 669.588 518.507 674.306C523.965 676.566 528.32 680.675 530.456 686.236C532.802 692.345 532.823 700.556 530.051 706.475C526.748 713.528 520.81 716.93 513.883 719.609C516.314 723.337 519.16 726.857 521.726 730.502L538.481 754.591Q530.212 754.794 521.94 754.803L513.968 754.679C509.76 748.947 505.781 742.855 502.414 736.589C500.248 732.558 498.563 727.713 495.848 724.069C494.346 723.683 493.255 723.791 491.755 723.995C490.632 725.856 491.093 751.316 491.064 755.44L470.599 755.518L470.868 671.523Z"/>
	<path fill="#E2E2E2" d="M491.256 687.292C496.391 687.282 502.401 687.152 506.87 690.045C508.798 691.293 510.26 693.131 510.698 695.42C511.392 699.037 509.082 703.04 507.035 705.807C502.136 709.469 497.174 709.12 491.325 709.199L491.256 687.292Z"/>
	<path d="M176.101 669.71C182.017 669.1 189.052 670.38 194.575 672.514Q195.422 672.844 196.251 673.214Q197.081 673.585 197.891 673.996Q198.702 674.407 199.491 674.857Q200.28 675.307 201.047 675.795Q201.813 676.283 202.555 676.809Q203.296 677.334 204.011 677.895Q204.726 678.456 205.412 679.051Q206.099 679.646 206.756 680.274Q207.412 680.902 208.037 681.562Q208.662 682.221 209.254 682.911Q209.846 683.6 210.404 684.317Q210.961 685.035 211.483 685.779Q212.005 686.523 212.489 687.292Q212.974 688.06 213.421 688.852Q213.867 689.643 214.274 690.455Q214.681 691.268 215.048 692.099C208.991 695.579 202.106 697.991 195.649 700.63L195.381 699.921C193.447 694.853 190.554 690.696 185.376 688.517C180.428 686.435 174.717 686.798 169.833 688.875Q169.323 689.087 168.825 689.325Q168.327 689.562 167.841 689.825Q167.356 690.088 166.884 690.374Q166.412 690.661 165.956 690.971Q165.499 691.281 165.059 691.614Q164.618 691.947 164.195 692.302Q163.772 692.657 163.368 693.032Q162.963 693.408 162.578 693.803Q162.193 694.199 161.828 694.613Q161.464 695.028 161.121 695.46Q160.777 695.893 160.456 696.342Q160.135 696.791 159.838 697.256Q159.54 697.72 159.266 698.2Q158.992 698.679 158.742 699.172Q158.493 699.664 158.269 700.168Q158.044 700.673 157.846 701.188C154.855 708.82 155.056 719.317 158.59 726.734C160.957 731.702 164.985 735.571 170.21 737.4C176.016 739.432 183.34 739.066 188.888 736.383C194.058 733.883 196.715 729.742 198.545 724.512C191.533 724.438 184.506 724.705 177.495 724.872L177.534 707.636L183.375 707.629L218.549 707.7C218.617 720.823 218.254 732.413 209.463 743.026C202.758 751.12 192.931 755.201 182.62 756.138C170.641 757.226 158.198 754.199 148.89 746.388C140.064 738.982 135.437 727.999 134.559 716.652C133.686 705.356 136.511 692.848 144.028 684.118C152.534 674.239 163.471 670.74 176.101 669.71Z"/>
	<path d="M435.035 671.526L456.284 671.442C456.016 678.04 456.069 684.648 456.058 691.25C456.041 698.26 456.163 705.275 456.218 712.285C456.316 724.662 457.253 737.858 447.811 747.404C440.519 754.775 430.504 757.136 420.424 757.079C410.511 757.023 400.147 754.099 393.153 746.715C389.948 743.331 387.838 739.239 386.785 734.71C384.861 726.431 385.648 717.178 385.638 708.71Q385.565 690.13 385.809 671.553L406.596 671.529Q406.699 688.442 406.608 705.355C406.598 711.556 406.197 718.142 406.964 724.295C407.365 727.515 408.1 731.431 410.279 733.936C412.838 736.879 416.952 738.047 420.732 738.126C424.49 738.206 428.755 737.273 431.507 734.54C433.654 732.409 434.376 728.845 434.758 725.967C435.573 719.813 435.078 713.129 435.073 706.91L435.035 671.526Z"/>
	<path d="M325.957 671.45C341.353 671.254 356.779 671.479 372.178 671.5L372.07 688.576Q359.444 688.806 346.819 688.528L346.853 704.198Q359.321 704.182 371.786 704.44Q371.878 712.725 371.708 721.009L346.982 721.003L346.971 729.75L347.002 737L372.503 736.999L372.542 754.378C357.157 754.149 341.737 754.384 326.348 754.409C325.51 726.84 325.922 699.039 325.957 671.45Z"/>
	<path d="M834.679 671.003Q844.558 670.88 854.433 671.18L854.524 736.141Q866.68 736.373 878.838 736.469C878.871 742.33 878.973 748.194 878.645 754.048Q856.587 754.002 834.53 753.694C834.958 726.138 834.466 698.563 834.679 671.003Z"/>
	<path d="M799.035 671.057L818.583 670.963C819.211 698.486 819.355 726.221 818.876 753.744C812.326 754.029 805.706 753.841 799.147 753.828L799.035 671.057Z"/>
</svg>
