<svg width="1024" height="584" viewBox="0 0 1024 584" fill="none" xmlns="http://www.w3.org/2000/svg">
<g clip-path="url(#clip0_4_73)">
<path d="M0 0H1024V584H0V0Z" fill="#E2E2E2"/>
<path d="M312.442 46.218C316.803 45.974 321.267 46.016 325.634 46.096C367.008 46.848 407.032 58.854 439.437 85.252C446.315 90.856 452.486 97.12 458.625 103.506C449.742 110.336 440.452 116.778 431.399 123.389C422.351 129.997 413.329 136.962 403.889 142.994C393.215 133.892 382.758 126.458 369.781 120.918C341.067 108.659 304.291 108.772 275.42 120.421C274.535 120.78 273.654 121.149 272.777 121.53C271.9 121.911 271.029 122.303 270.162 122.705C269.295 123.108 268.434 123.521 267.578 123.945C266.721 124.369 265.87 124.804 265.025 125.249C264.18 125.694 263.34 126.15 262.505 126.616C261.671 127.082 260.843 127.558 260.021 128.045C259.198 128.532 258.382 129.029 257.572 129.536C256.763 130.043 255.959 130.561 255.162 131.088C254.365 131.615 253.575 132.152 252.791 132.699C252.008 133.246 251.231 133.802 250.461 134.368C249.691 134.934 248.928 135.51 248.173 136.095C247.418 136.68 246.67 137.275 245.929 137.879C245.188 138.482 244.455 139.095 243.73 139.718C243.005 140.34 242.287 140.971 241.578 141.611C240.869 142.251 240.167 142.9 239.473 143.557C238.78 144.214 238.095 144.88 237.418 145.555C236.741 146.23 236.073 146.913 235.413 147.604C234.753 148.295 234.102 148.994 233.46 149.702C232.817 150.409 232.184 151.125 231.559 151.848C230.935 152.571 230.32 153.301 229.713 154.04C229.107 154.779 228.51 155.525 227.922 156.278C227.334 157.031 226.756 157.792 226.187 158.56C225.618 159.328 225.059 160.103 224.51 160.885C223.961 161.666 223.421 162.455 222.891 163.25C222.361 164.045 221.841 164.847 221.331 165.655C220.822 166.464 220.322 167.278 219.832 168.099C219.343 168.919 218.864 169.745 218.395 170.578C217.926 171.411 217.467 172.249 217.019 173.093C216.571 173.937 216.134 174.787 215.707 175.642C215.28 176.497 214.863 177.357 214.458 178.222C214.053 179.087 213.658 179.958 213.274 180.833C212.891 181.708 212.518 182.587 212.156 183.472C199.894 212.724 199.611 248.034 211.754 277.379C212.118 278.269 212.493 279.155 212.878 280.036C213.263 280.917 213.66 281.793 214.067 282.664C214.474 283.535 214.892 284.402 215.321 285.263C215.75 286.124 216.189 286.979 216.639 287.829C217.089 288.679 217.549 289.523 218.02 290.362C218.491 291.201 218.972 292.033 219.463 292.86C219.954 293.687 220.456 294.508 220.967 295.322C221.479 296.137 222.001 296.945 222.532 297.746C223.064 298.547 223.605 299.342 224.156 300.13C224.707 300.919 225.268 301.7 225.839 302.474C226.41 303.248 226.99 304.015 227.579 304.775C228.168 305.535 228.767 306.288 229.375 307.033C229.983 307.778 230.6 308.515 231.227 309.245C231.853 309.975 232.488 310.697 233.133 311.411C233.777 312.126 234.43 312.832 235.091 313.53C235.753 314.228 236.423 314.918 237.102 315.599C237.781 316.28 238.468 316.953 239.163 317.618C239.858 318.282 240.562 318.938 241.273 319.585C241.984 320.232 242.704 320.87 243.431 321.499C244.158 322.128 244.893 322.749 245.636 323.36C246.379 323.971 247.129 324.573 247.886 325.165C248.644 325.758 249.409 326.341 250.18 326.915C250.952 327.488 251.731 328.052 252.517 328.607C253.303 329.162 254.096 329.706 254.895 330.241C255.694 330.776 256.5 331.3 257.312 331.815C258.125 332.33 258.943 332.835 259.768 333.33C260.593 333.825 261.423 334.309 262.26 334.783C263.097 335.257 263.939 335.721 264.788 336.174C265.636 336.627 266.49 337.07 267.349 337.502C268.208 337.935 269.073 338.356 269.942 338.767C270.811 339.178 271.686 339.578 272.566 339.967C273.445 340.356 274.329 340.735 275.218 341.102C304.448 352.975 342.561 353.509 371.746 341.137C394.589 331.453 414.45 315.144 426.769 293.42C430.378 287.055 433.082 280.37 435.842 273.612C406.423 274.185 376.938 273.691 347.513 273.591L323.101 273.551C316.591 273.551 309.853 273.92 303.43 272.705C297.75 271.63 292.234 268.465 287.993 264.576C287.578 264.197 287.173 263.809 286.778 263.41C286.383 263.012 285.997 262.604 285.622 262.186C285.247 261.768 284.883 261.341 284.529 260.905C284.175 260.469 283.832 260.024 283.501 259.571C283.17 259.118 282.85 258.657 282.541 258.188C282.232 257.719 281.936 257.242 281.651 256.758C281.366 256.275 281.094 255.784 280.834 255.286C280.573 254.789 280.326 254.285 280.091 253.775C279.856 253.265 279.633 252.75 279.424 252.229C279.215 251.708 279.018 251.182 278.835 250.651C278.652 250.12 278.483 249.585 278.326 249.046C278.17 248.507 278.027 247.965 277.898 247.418C277.769 246.871 277.653 246.322 277.551 245.77C277.449 245.218 277.361 244.664 277.287 244.107C277.213 243.55 277.153 242.992 277.106 242.433C277.06 241.874 277.028 241.313 277.009 240.752C276.711 231.467 280.745 221.412 287.252 214.802C291.88 210.1 297.501 207.46 303.999 206.483C311.608 205.34 319.795 206.044 327.5 206.063L368.111 206.051L513.59 206.06C518.903 181.693 525.277 161.528 537.475 139.604C561.346 96.698 598.535 67.327 645.639 53.934C647.223 53.474 648.812 53.0337 650.407 52.613C652.002 52.1923 653.601 51.7913 655.206 51.41C656.81 51.028 658.419 50.6663 660.032 50.325C661.646 49.983 663.264 49.661 664.885 49.359C666.506 49.057 668.131 48.775 669.759 48.513C671.388 48.251 673.019 48.009 674.653 47.787C676.287 47.5657 677.924 47.364 679.563 47.182C681.202 47.0007 682.844 46.8397 684.487 46.699C686.13 46.5577 687.775 46.4367 689.421 46.336C691.067 46.2353 692.714 46.155 694.363 46.095C696.011 46.035 697.66 45.9953 699.309 45.976C700.958 45.956 702.607 45.9567 704.256 45.978C705.905 45.9993 707.554 46.0407 709.202 46.102C710.85 46.164 712.497 46.246 714.143 46.348C715.789 46.4507 717.434 46.5733 719.077 46.716C720.72 46.8587 722.361 47.0217 724 47.205C725.639 47.3877 727.276 47.591 728.91 47.815C730.544 48.0383 732.175 48.2817 733.803 48.545C735.431 48.809 737.056 49.0927 738.677 49.396C740.298 49.6993 741.915 50.023 743.528 50.367C745.141 50.7103 746.75 51.0733 748.354 51.456C749.958 51.8393 751.557 52.242 753.151 52.664C754.746 53.0867 756.335 53.5287 757.918 53.99C759.501 54.4513 761.079 54.9323 762.65 55.433C764.221 55.933 765.786 56.4527 767.345 56.992C768.904 57.5307 770.456 58.0886 772.001 58.666C773.546 59.2426 775.084 59.8387 776.614 60.454C778.145 61.0687 779.667 61.7023 781.182 62.355C782.697 63.007 784.203 63.678 785.701 64.368C787.199 65.0573 788.689 65.765 790.17 66.491C791.651 67.217 793.122 67.9613 794.584 68.724C796.047 69.4867 797.5 70.267 798.943 71.065C800.233 71.8277 801.513 72.6067 802.783 73.402C804.053 74.1967 805.313 75.0073 806.563 75.834C807.813 76.66 809.053 77.5017 810.282 78.359C811.511 79.217 812.729 80.09 813.936 80.978C815.143 81.866 816.338 82.7687 817.523 83.686C818.708 84.604 819.881 85.5367 821.042 86.484C822.203 87.4313 823.352 88.393 824.489 89.369C825.626 90.345 826.75 91.335 827.863 92.339C828.975 93.343 830.074 94.361 831.161 95.393C832.248 96.4243 833.322 97.4693 834.382 98.528C835.443 99.5867 836.49 100.658 837.524 101.743C838.558 102.828 839.578 103.925 840.584 105.036C841.591 106.146 842.583 107.269 843.561 108.404C844.539 109.539 845.503 110.687 846.453 111.846C847.402 113.005 848.337 114.176 849.257 115.359C850.178 116.542 851.083 117.736 851.973 118.941C852.864 120.146 853.739 121.362 854.599 122.589C855.458 123.816 856.303 125.054 857.132 126.303C857.961 127.551 858.774 128.809 859.571 130.078C860.368 131.347 861.15 132.625 861.915 133.914C862.68 135.202 863.43 136.5 864.163 137.807C864.896 139.114 865.612 140.43 866.312 141.755C867.012 143.08 867.695 144.413 868.362 145.755C869.029 147.097 869.678 148.447 870.311 149.806C870.944 151.164 871.559 152.53 872.158 153.904C872.757 155.278 873.338 156.659 873.902 158.047C874.466 159.435 875.013 160.83 875.542 162.232C876.071 163.634 876.582 165.043 877.076 166.458C877.57 167.873 878.046 169.293 878.504 170.72C878.963 172.147 879.403 173.579 879.825 175.016C880.248 176.454 880.652 177.897 881.039 179.345C881.425 180.792 881.793 182.245 882.143 183.702C894.028 231.448 887.787 284.749 862.182 327.131C837.062 368.711 800.077 397.145 752.628 408.605C740.6 411.511 728.109 413.002 715.777 413.841C672.567 416.782 634.613 408.07 597.571 385.484C555.54 359.856 529.736 320.964 518.281 273.527L503.712 273.573C503.308 275.465 502.874 277.35 502.41 279.228C501.945 281.106 501.451 282.976 500.926 284.838C500.402 286.7 499.848 288.553 499.264 290.398C498.681 292.242 498.068 294.076 497.425 295.901C496.782 297.726 496.111 299.54 495.41 301.343C494.709 303.146 493.979 304.938 493.221 306.717C492.463 308.497 491.676 310.264 490.861 312.019C490.046 313.774 489.204 315.515 488.333 317.242C487.462 318.969 486.564 320.682 485.638 322.381C484.712 324.08 483.759 325.763 482.78 327.431C481.8 329.099 480.794 330.751 479.761 332.387C478.728 334.023 477.67 335.642 476.585 337.244C475.501 338.846 474.391 340.43 473.255 341.996C472.12 343.563 470.96 345.11 469.775 346.639C468.59 348.168 467.38 349.678 466.147 351.169C464.914 352.659 463.657 354.129 462.376 355.579C430.269 391.641 384.19 411.996 336.329 414.832C283.965 417.935 235.131 402.795 195.839 367.703C160.675 336.299 139.304 288.257 136.775 241.429C136.686 239.896 136.615 238.363 136.564 236.829C136.513 235.294 136.48 233.76 136.467 232.225C136.453 230.69 136.458 229.155 136.482 227.62C136.507 226.085 136.55 224.55 136.612 223.017C136.674 221.483 136.755 219.95 136.855 218.418C136.955 216.886 137.074 215.356 137.211 213.827C137.348 212.298 137.505 210.771 137.68 209.246C137.855 207.721 138.049 206.198 138.262 204.678C138.475 203.157 138.707 201.64 138.957 200.125C139.207 198.61 139.476 197.099 139.763 195.591C140.05 194.083 140.356 192.579 140.681 191.079C141.006 189.578 141.349 188.082 141.71 186.59C142.071 185.098 142.451 183.611 142.849 182.128C143.247 180.645 143.663 179.168 144.098 177.696C144.533 176.223 144.985 174.756 145.456 173.295C145.927 171.834 146.415 170.379 146.922 168.93C147.428 167.481 147.952 166.038 148.494 164.602C149.037 163.166 149.597 161.737 150.174 160.314C150.751 158.891 151.346 157.476 151.958 156.069C152.57 154.661 153.199 153.261 153.846 151.869C154.493 150.476 155.157 149.092 155.838 147.716C156.519 146.34 157.216 144.973 157.931 143.614C158.646 142.255 159.377 140.906 160.124 139.565C160.872 138.224 161.636 136.893 162.417 135.572C163.198 134.25 163.994 132.938 164.807 131.636C165.62 130.333 166.449 129.041 167.294 127.76C168.139 126.478 168.999 125.207 169.876 123.946C170.752 122.686 171.643 121.437 172.55 120.198C173.457 118.959 174.38 117.732 175.317 116.516C176.254 115.3 177.206 114.096 178.173 112.904C179.14 111.711 180.121 110.531 181.117 109.363C182.113 108.195 183.123 107.039 184.148 105.896C218.308 68.155 261.834 48.678 312.442 46.218Z" fill="#36B37E"/>
<path d="M693.968 111.706C703.505 110.471 714.087 111.668 723.566 113.177C753.639 117.964 780.222 132.125 798.225 157.179C821.034 188.921 825.429 228.687 819.276 266.353C813.725 266.116 808.14 266.206 802.583 266.179C802.875 255.089 802.433 243.956 802.822 232.885C803.001 227.783 804.013 222.78 804.299 217.663C804.42 215.501 804.481 213.225 804.05 211.093C802.941 205.607 800.212 200.388 798.479 195.088C797.53 192.188 797.053 188.689 795.61 186.008C794.932 184.747 793.835 183.587 792.884 182.524C793.049 177.096 792.698 174.374 790.198 169.538C790.139 170.391 790.051 171.07 789.777 171.887C788.083 176.945 789.558 181.662 786.035 186.235C785.596 186.806 785.221 187.202 784.931 187.863L785.63 189.382L784.671 188.309C784.802 189.358 784.864 190.489 784.586 191.523C784.013 193.655 782.776 195.695 781.997 197.772C780.439 201.927 779.264 206.389 778.49 210.757C777.638 215.567 777.953 220.405 778.286 225.249C779.062 226.442 779.77 226.48 781.075 226.983C782.289 231.865 782.42 258.609 781.265 262.917L780.462 262.505L781.533 262.136L780.735 261.964C779.799 251.971 780.571 241.28 780.609 231.209C778.115 231.243 774.916 231.599 772.497 231.152C770.703 230.821 770.933 228.853 770.101 227.424C768.622 224.887 760.962 221.6 760.575 220.455C760.179 219.28 760.675 218.847 759.852 217.696C758.611 217.442 757.951 217.432 756.731 217.777C756.298 218.854 756.763 219.306 757.139 220.365C755.377 222.582 750.275 223.882 747.704 225.594C745.574 227.013 745.61 228.987 745.213 231.309C743.679 232.322 741.335 231.966 739.495 232.012L739.316 266.355L732.758 266.322C730.499 262.868 728.365 259.323 726.185 255.818C724.4 251.783 717.739 238.027 718.607 234.47C719.37 234.101 720.178 233.742 720.892 233.286C721.964 232.6 722.657 231.862 722.778 230.523C722.876 229.43 722.491 228.529 721.848 227.692C720.085 226.946 718.265 227.206 716.397 227.299C713.412 210.542 711.466 193.666 710.557 176.669C710.324 172.835 709.54 168.413 709.865 164.611C709.949 163.624 710.421 162.802 710.888 161.946C711.456 160.905 711.648 160.798 711.655 159.572L709.893 159.263L709.818 158.723C710.226 158.378 710.681 158.024 711.013 157.601C712.072 156.248 710.92 149.006 710.773 147.104L706.486 144.916C706.512 141.533 706.411 138.271 706.042 134.907C704.956 137.821 704.857 140.99 704.074 144.018C702.54 145.23 699.842 147.3 699.143 149.163C698.347 151.285 700.276 160.039 700.336 162.884C700.437 167.626 698.403 196.491 696.949 199.227L695.428 198.987L694.924 199.73C694.843 201.29 695.396 202.197 696.105 203.525C697.521 206.179 693.777 223.896 693.141 227.531C691.571 227.543 689.365 227.333 687.961 228.175C686.775 228.885 686.736 229.401 686.439 230.64C687.334 233.604 689.03 234.846 691.48 236.628C688.506 246.396 685.167 258.318 678.497 266.249C677.467 267.474 676.709 268.093 675.112 268.247L674.015 267.277C671.934 262.136 672.897 255.525 672.918 250.038C672.967 237.522 673.293 223.691 663.582 214.267C659.595 210.397 654.636 207.988 649.245 206.835C640.932 205.057 631.062 206.044 622.565 206.064L580.377 206.051C584.834 187.385 593.621 168.944 606.074 154.283C628.244 128.182 660.243 114.41 693.968 111.706Z" fill="#FFF0F0"/>
<path d="M585.169 273.716L816.591 274.485C810.81 292.038 799.311 306.885 786.232 319.618C773.132 332.074 756.635 340.716 739.217 345.34C707.384 353.792 666.751 351.46 638.01 334.532C617.992 322.742 602.754 307.128 591.436 286.905C589.174 282.864 586.325 278.188 585.169 273.716Z" fill="#E2E2E2"/>
<path d="M700.709 256.575C703.625 256.307 706.389 256.425 709.303 256.603C713.606 259.377 716.054 263.26 718.405 267.653L707.375 267.73C702.047 267.462 696.601 267.704 691.252 267.632C691.828 266.553 692.461 265.508 693.15 264.497C693.839 263.486 694.582 262.516 695.377 261.587C696.172 260.658 697.015 259.774 697.906 258.936C698.797 258.098 699.732 257.311 700.709 256.575Z" fill="#E2E2E2"/>
<path d="M788.33 212.489C790.195 212.208 792.245 212.213 793.774 213.492C793.899 213.597 794.018 213.708 794.131 213.825C794.244 213.943 794.351 214.066 794.451 214.195C794.551 214.324 794.644 214.458 794.729 214.597C794.814 214.736 794.892 214.879 794.963 215.026C795.033 215.173 795.095 215.324 795.149 215.478C795.203 215.632 795.248 215.788 795.285 215.947C795.322 216.106 795.351 216.267 795.371 216.428C795.391 216.59 795.402 216.753 795.405 216.916C795.46 219.24 793.926 221.188 792.376 222.739C791.746 222.777 791.118 222.818 790.488 222.815C788.696 222.808 787.484 222.245 786.259 220.949C785.147 219.773 784.644 218.421 784.883 216.782C785.202 214.586 786.672 213.682 788.33 212.489Z" fill="#E2E2E2"/>
<path d="M760.711 246.496C762.479 246.436 764.702 246.119 766.278 247.07C767.275 247.672 768.098 248.677 768.174 249.884C768.263 251.312 767.447 252.619 766.453 253.55C764.688 253.722 762.508 254.122 760.866 253.232C760.149 252.843 759.552 252.333 759.34 251.537C758.827 249.614 759.737 248.083 760.711 246.496Z" fill="#E2E2E2"/>
<path d="M745.741 247.081C747.58 246.972 750.302 246.544 752.056 247.082C753.379 247.489 753.574 247.792 754.28 248.882C754.45 250.577 754.154 251.58 753.557 253.162C752.06 253.581 750.244 253.961 748.689 253.818C747.364 253.696 746.797 253.274 745.954 252.304C745.187 250.504 745.51 248.98 745.741 247.081Z" fill="#E2E2E2"/>
<path d="M748.301 259.588C750.092 259.57 752.207 259.6 753.542 260.997C754.54 262.042 754.467 262.516 754.374 263.834C753.479 265.288 752.713 265.77 751.21 266.546C750.667 266.558 750.122 266.577 749.579 266.561C748.087 266.517 746.458 266 745.559 264.705C744.821 263.641 744.916 263.274 745.066 262.069C746.005 260.661 746.765 260.256 748.301 259.588Z" fill="#E2E2E2"/>
<path d="M759.813 259.688C762.373 259.567 765.303 258.967 767.45 260.525C768.087 262.112 767.501 263.963 767.196 265.598C765.874 265.658 764.544 265.731 763.221 265.719C761.492 265.704 760.771 265.326 759.593 264.109C759.158 262.5 759.483 261.27 759.813 259.688Z" fill="#E2E2E2"/>
<path d="M745.494 236.566L747.972 236.516C750.469 236.466 752.636 236.096 754.555 237.945C754.67 239.438 754.298 239.681 753.508 240.91C752.379 241.279 751.189 241.45 750.012 241.584C748.287 241.781 747.252 241.647 745.864 240.501C745.093 239.045 745.275 238.118 745.494 236.566Z" fill="#E2E2E2"/>
<path d="M761.092 237.173C761.228 237.165 761.365 237.155 761.502 237.149C761.729 237.139 761.957 237.135 762.185 237.124C763.204 237.075 764.299 236.948 765.311 237.118C766.894 237.384 767.947 238.258 768.806 239.541L768.614 240.377C767.771 241.004 766.935 241.328 765.96 241.706C764.73 241.784 763.146 242.015 761.976 241.557C760.546 240.997 759.17 240.288 758.578 238.805C759.341 237.582 759.707 237.656 761.092 237.173Z" fill="#E2E2E2"/>
<path d="M755.381 227.028C758.456 226.866 760.631 227.334 763.279 228.918L763.278 229.48L762.059 229.984C759.555 230.023 755.566 230.458 753.489 229.002L753.53 228.224L755.381 227.028Z" fill="#E2E2E2"/>
<path d="M789.452 249.292C790.794 249.465 791.547 249.482 792.618 250.387C793.458 252.052 793.034 253.685 792.811 255.459C791.429 255.443 790.666 255.481 789.436 254.761C788.557 253.154 789.182 251.042 789.452 249.292Z" fill="#E2E2E2"/>
<path d="M790.758 234.648C792.268 235.351 792.557 235.677 793.129 237.2C793.005 238.802 792.705 239.416 791.849 240.709C791.468 240.592 790.816 240.414 790.489 240.205C789.508 239.575 789.433 238.828 789.171 237.794C789.472 236.35 789.763 235.74 790.758 234.648Z" fill="#E2E2E2"/>
<path d="M688.442 228.9C689.765 228.88 690.669 228.895 691.944 229.323C692.471 230.746 691.646 232.328 691.205 233.775C689.944 233.854 690.04 233.608 689.109 232.848C688.399 231.303 688.306 230.596 688.442 228.9Z" fill="#E2E2E2"/>
<path d="M738.425 450.984L760.71 450.976C770.196 478.752 781.703 505.91 790.979 533.769C784.033 534.079 777.03 533.898 770.077 533.876C768.2 528.557 766.379 523.218 764.614 517.86C754.567 517.881 744.519 517.842 734.472 517.742C732.464 523.232 730.506 528.74 728.599 534.266C714.105 534.901 699.464 534.218 684.939 534.471C676.853 522.711 668.736 511.379 662.062 498.722C662.417 510.473 662.142 522.313 662.124 534.073L648.967 534.095L642.098 534.136C641.77 506.591 642.208 478.99 642.219 451.439C653.659 451.369 675.579 449.541 685.754 453.951C686.111 454.102 686.463 454.263 686.812 454.432C687.161 454.602 687.505 454.781 687.845 454.968C688.184 455.155 688.519 455.351 688.848 455.555C689.178 455.76 689.502 455.972 689.82 456.193C690.139 456.414 690.451 456.644 690.758 456.881C691.065 457.118 691.366 457.362 691.66 457.615C691.954 457.868 692.242 458.128 692.523 458.395C692.804 458.662 693.077 458.937 693.344 459.218C693.611 459.499 693.87 459.787 694.122 460.082C694.374 460.377 694.618 460.678 694.855 460.985C695.092 461.292 695.32 461.605 695.54 461.924C695.761 462.243 695.973 462.568 696.177 462.897C696.381 463.227 696.576 463.562 696.763 463.902C696.949 464.242 697.127 464.586 697.296 464.935C697.465 465.284 697.624 465.638 697.775 465.995C697.926 466.352 698.068 466.712 698.2 467.077C700.72 473.879 700.541 482.025 697.359 488.57C694.491 494.469 690.25 497.458 684.198 499.423C690.401 509.487 699.936 523.188 707.45 532.052C717.524 504.964 729.096 478.345 738.425 450.984Z" fill="black"/>
<path d="M749.255 470.772C752.131 473.321 757.758 496.574 759.376 501.882L751.064 501.932L739.645 501.962C742.55 491.486 745.988 481.14 749.255 470.772Z" fill="#E2E2E2"/>
<path d="M662.361 466.862C666.913 466.878 671.502 466.812 675.382 469.588C677.165 470.863 678.697 472.775 678.982 475.006C679.383 478.133 678.144 481.162 676.345 483.639C671.914 486.82 667.527 486.599 662.31 486.667L662.361 466.862Z" fill="#E2E2E2"/>
<path d="M583.432 448.781C584.164 448.757 584.896 448.751 585.628 448.762C586.36 448.774 587.091 448.804 587.822 448.851C588.553 448.899 589.282 448.965 590.009 449.048C590.736 449.131 591.461 449.233 592.184 449.352C592.907 449.471 593.626 449.608 594.341 449.762C595.057 449.917 595.769 450.089 596.476 450.278C597.183 450.467 597.886 450.674 598.583 450.898C599.28 451.122 599.971 451.363 600.656 451.621C601.341 451.879 602.02 452.154 602.692 452.445C603.364 452.736 604.028 453.043 604.685 453.367C605.342 453.691 605.99 454.031 606.63 454.387C607.27 454.742 607.901 455.113 608.522 455.5C609.144 455.887 609.756 456.289 610.358 456.706C610.96 457.123 611.551 457.554 612.132 458C612.713 458.445 613.282 458.905 613.841 459.379C614.399 459.853 614.945 460.34 615.479 460.841C616.014 461.342 616.535 461.855 617.044 462.382C617.553 462.908 618.049 463.446 618.532 463.997C619.015 464.548 619.483 465.11 619.938 465.684C620.393 466.257 620.834 466.842 621.26 467.437C621.686 468.032 622.097 468.638 622.494 469.254C622.891 469.869 623.272 470.494 623.637 471.129C624.003 471.763 624.353 472.406 624.687 473.057C625.022 473.709 625.34 474.368 625.641 475.035C625.943 475.702 626.228 476.377 626.497 477.058C626.766 477.739 627.017 478.426 627.252 479.12C627.487 479.813 627.705 480.512 627.905 481.216C628.106 481.921 628.289 482.629 628.455 483.342C628.62 484.055 628.768 484.772 628.899 485.493C629.03 486.214 629.142 486.937 629.237 487.663C629.332 488.389 629.409 489.117 629.468 489.847C629.527 490.576 629.569 491.307 629.592 492.039C629.615 492.771 629.621 493.503 629.608 494.235C629.595 494.967 629.565 495.698 629.516 496.429C629.467 497.16 629.401 497.889 629.316 498.616C629.231 499.343 629.129 500.068 629.009 500.79C628.889 501.513 628.751 502.232 628.596 502.947C628.441 503.662 628.268 504.374 628.078 505.081C627.887 505.788 627.68 506.49 627.455 507.187C627.23 507.884 626.988 508.574 626.729 509.259C626.47 509.944 626.195 510.623 625.903 511.294C625.611 511.965 625.303 512.629 624.978 513.285C624.653 513.942 624.313 514.59 623.956 515.229C623.599 515.868 623.227 516.499 622.84 517.12C622.452 517.741 622.049 518.353 621.632 518.954C621.215 519.555 620.783 520.146 620.336 520.727C619.889 521.307 619.429 521.876 618.954 522.433C618.479 522.991 617.991 523.537 617.49 524.07C616.989 524.604 616.474 525.125 615.947 525.633C615.42 526.142 614.881 526.637 614.33 527.118C613.779 527.6 613.216 528.068 612.642 528.523C612.067 528.977 611.482 529.417 610.886 529.842C610.29 530.267 609.684 530.678 609.068 531.074C608.452 531.469 607.827 531.85 607.192 532.215C606.557 532.58 605.914 532.929 605.262 533.262C604.61 533.595 603.95 533.912 603.283 534.213C602.615 534.514 601.94 534.799 601.259 535.066C600.578 535.334 599.89 535.585 599.196 535.819C598.502 536.053 597.803 536.27 597.099 536.469C596.394 536.669 595.685 536.851 594.972 537.016C594.259 537.181 593.542 537.328 592.821 537.458C592.1 537.587 591.377 537.699 590.651 537.793C589.924 537.887 589.196 537.963 588.467 538.021C587.737 538.08 587.006 538.12 586.274 538.142C585.543 538.164 584.813 538.168 584.082 538.155C583.351 538.142 582.62 538.11 581.891 538.061C581.162 538.012 580.434 537.944 579.708 537.859C578.982 537.774 578.259 537.671 577.538 537.55C576.817 537.43 576.099 537.292 575.385 537.136C574.671 536.98 573.961 536.807 573.255 536.616C572.55 536.426 571.849 536.218 571.154 535.993C570.458 535.768 569.768 535.526 569.085 535.267C568.401 535.008 567.724 534.733 567.054 534.441C566.384 534.149 565.721 533.841 565.066 533.516C564.411 533.192 563.765 532.852 563.126 532.495C562.488 532.139 561.859 531.767 561.239 531.38C560.619 530.993 560.009 530.591 559.408 530.174C558.808 529.757 558.218 529.326 557.639 528.88C557.06 528.434 556.492 527.974 555.935 527.5C555.378 527.026 554.834 526.539 554.301 526.039C553.768 525.538 553.248 525.025 552.741 524.499C552.233 523.973 551.739 523.435 551.258 522.884C550.777 522.334 550.309 521.772 549.856 521.199C549.402 520.626 548.963 520.042 548.538 519.447C548.113 518.852 547.702 518.247 547.307 517.632C546.912 517.017 546.533 516.393 546.168 515.76C545.803 515.126 545.454 514.484 545.121 513.833C544.788 513.182 544.471 512.524 544.17 511.858C543.869 511.192 543.585 510.519 543.317 509.838C543.049 509.158 542.798 508.472 542.564 507.779C542.33 507.087 542.113 506.389 541.913 505.686C541.713 504.983 541.53 504.275 541.365 503.563C541.2 502.851 541.052 502.135 540.922 501.416C540.792 500.697 540.68 499.975 540.585 499.25C540.49 498.525 540.413 497.799 540.354 497.07C540.295 496.341 540.254 495.612 540.231 494.881C540.208 494.15 540.202 493.42 540.215 492.689C540.228 491.958 540.258 491.227 540.307 490.498C540.355 489.769 540.421 489.041 540.505 488.315C540.59 487.589 540.692 486.865 540.811 486.144C540.93 485.423 541.068 484.705 541.223 483.991C541.378 483.276 541.55 482.566 541.739 481.86C541.929 481.154 542.136 480.453 542.36 479.758C542.584 479.062 542.825 478.372 543.083 477.688C543.341 477.004 543.616 476.327 543.907 475.656C544.198 474.985 544.505 474.322 544.829 473.667C545.152 473.012 545.492 472.365 545.847 471.726C546.202 471.087 546.573 470.458 546.96 469.837C547.346 469.216 547.747 468.605 548.164 468.004C548.58 467.403 549.011 466.813 549.456 466.233C549.901 465.654 550.36 465.085 550.833 464.528C551.306 463.971 551.793 463.425 552.293 462.892C552.792 462.359 553.305 461.838 553.831 461.329C554.356 460.821 554.894 460.326 555.443 459.844C555.993 459.363 556.554 458.895 557.127 458.44C557.7 457.985 558.283 457.545 558.877 457.12C559.471 456.694 560.075 456.283 560.69 455.887C561.304 455.491 561.928 455.11 562.561 454.745C563.194 454.38 563.836 454.03 564.486 453.696C565.136 453.362 565.794 453.044 566.46 452.742C567.126 452.44 567.799 452.155 568.479 451.886C569.158 451.617 569.844 451.366 570.536 451.131C571.229 450.896 571.926 450.678 572.629 450.477C573.332 450.276 574.039 450.093 574.751 449.926C575.463 449.76 576.179 449.612 576.898 449.481C577.617 449.35 578.338 449.236 579.063 449.141C579.788 449.045 580.515 448.967 581.243 448.907C581.972 448.847 582.701 448.805 583.432 448.781Z" fill="black"/>
<path d="M583.756 468.664C589.234 468.489 594.355 469.648 598.813 472.965C603.98 476.809 607.098 482.618 607.933 488.958C608.881 496.15 607.271 503.796 602.792 509.588C598.521 515.112 593.145 517.48 586.407 518.347C581.11 518.493 575.79 517.205 571.457 514.058C566.016 510.106 563.054 503.919 562.18 497.364C561.233 490.257 562.792 482.83 567.299 477.141C571.598 471.716 577.073 469.427 583.756 468.664Z" fill="#E2E2E2"/>
<path d="M265.673 449.067C266.396 448.984 267.12 448.92 267.846 448.873C268.572 448.826 269.299 448.797 270.026 448.786C270.753 448.775 271.48 448.781 272.207 448.806C272.934 448.831 273.66 448.873 274.385 448.934C275.11 448.994 275.833 449.072 276.554 449.168C277.275 449.264 277.994 449.378 278.709 449.509C279.424 449.64 280.136 449.789 280.844 449.956C281.553 450.122 282.256 450.306 282.955 450.507C283.654 450.708 284.348 450.926 285.036 451.161C285.725 451.396 286.407 451.648 287.083 451.917C287.759 452.186 288.428 452.471 289.09 452.773C289.752 453.074 290.406 453.392 291.052 453.726C291.698 454.06 292.336 454.41 292.965 454.775C293.594 455.14 294.214 455.521 294.824 455.917C295.435 456.312 296.035 456.723 296.625 457.148C297.215 457.573 297.794 458.013 298.363 458.467C298.931 458.921 299.488 459.389 300.034 459.87C300.579 460.351 301.112 460.846 301.633 461.353C302.154 461.86 302.663 462.38 303.158 462.913C303.654 463.446 304.136 463.99 304.605 464.547C305.074 465.103 305.528 465.67 305.969 466.249C306.41 466.828 306.836 467.417 307.248 468.017C307.659 468.616 308.056 469.226 308.438 469.845C308.82 470.464 309.186 471.092 309.537 471.729C309.888 472.366 310.223 473.012 310.542 473.666C310.861 474.319 311.163 474.98 311.45 475.649C311.737 476.318 312.007 476.993 312.26 477.675C312.513 478.357 312.75 479.045 312.969 479.738C313.188 480.432 313.391 481.131 313.576 481.834C313.761 482.537 313.928 483.245 314.078 483.957C314.229 484.668 314.361 485.383 314.476 486.102C314.591 486.82 314.689 487.541 314.768 488.264C314.847 488.987 314.909 489.712 314.953 490.438C314.997 491.164 315.023 491.891 315.031 492.618C315.039 493.345 315.029 494.073 315.001 494.8C314.974 495.527 314.928 496.252 314.865 496.977C314.801 497.702 314.72 498.424 314.621 499.145C314.522 499.866 314.405 500.583 314.271 501.298C314.136 502.013 313.984 502.725 313.815 503.432C313.646 504.139 313.459 504.842 313.255 505.54C313.051 506.239 312.83 506.932 312.592 507.619C312.354 508.306 312.099 508.987 311.827 509.662C311.556 510.337 311.268 511.004 310.963 511.665C310.658 512.326 310.338 512.978 310.001 513.623C309.664 514.268 309.312 514.905 308.944 515.532C308.577 516.159 308.194 516.777 307.795 517.386C307.396 517.995 306.983 518.593 306.556 519.182C306.128 519.77 305.686 520.347 305.229 520.914C304.773 521.481 304.303 522.036 303.82 522.579C303.336 523.122 302.839 523.653 302.33 524.172C301.82 524.691 301.298 525.198 300.763 525.691C300.228 526.184 299.682 526.664 299.124 527.13C298.565 527.597 297.996 528.049 297.415 528.487C296.835 528.926 296.244 529.35 295.642 529.759C295.041 530.168 294.43 530.562 293.809 530.941C293.188 531.32 292.559 531.684 291.92 532.032C291.281 532.38 290.634 532.712 289.979 533.029C289.324 533.345 288.661 533.645 287.992 533.929C287.322 534.212 286.645 534.479 285.962 534.73C285.279 534.98 284.591 535.213 283.896 535.43C283.201 535.647 282.502 535.846 281.798 536.028C281.094 536.21 280.386 536.375 279.673 536.522C278.96 536.669 278.245 536.799 277.526 536.91C276.807 537.022 276.086 537.116 275.363 537.193C274.644 537.269 273.923 537.327 273.2 537.368C272.478 537.409 271.755 537.432 271.031 537.437C270.308 537.442 269.585 537.43 268.862 537.4C268.139 537.37 267.417 537.322 266.697 537.257C265.976 537.192 265.258 537.109 264.541 537.008C263.824 536.907 263.111 536.789 262.4 536.654C261.689 536.518 260.982 536.365 260.279 536.195C259.576 536.025 258.877 535.838 258.183 535.633C257.489 535.429 256.8 535.208 256.117 534.969C255.434 534.731 254.757 534.476 254.086 534.205C253.415 533.934 252.752 533.647 252.095 533.343C251.438 533.039 250.79 532.719 250.149 532.384C249.508 532.049 248.875 531.698 248.251 531.331C247.627 530.964 247.013 530.583 246.408 530.187C245.803 529.79 245.207 529.379 244.622 528.953C244.037 528.528 243.463 528.088 242.9 527.634C242.336 527.18 241.784 526.713 241.243 526.232C240.702 525.751 240.174 525.257 239.658 524.75C239.141 524.243 238.638 523.724 238.147 523.193C237.656 522.662 237.178 522.119 236.713 521.564C236.249 521.009 235.799 520.444 235.362 519.867C234.925 519.29 234.503 518.702 234.095 518.105C233.687 517.508 233.294 516.9 232.915 516.283C232.537 515.666 232.174 515.041 231.827 514.406C231.479 513.772 231.147 513.13 230.831 512.479C230.515 511.828 230.215 511.169 229.931 510.504C229.647 509.839 229.38 509.167 229.129 508.488C228.878 507.809 228.643 507.125 228.426 506.435C228.209 505.745 228.008 505.05 227.824 504.35C227.641 503.65 227.475 502.946 227.326 502.238C227.177 501.53 227.045 500.819 226.931 500.104C226.817 499.39 226.72 498.673 226.641 497.954C226.562 497.235 226.5 496.514 226.457 495.792C226.413 495.07 226.387 494.347 226.378 493.623C226.37 492.9 226.379 492.177 226.406 491.454C226.433 490.731 226.478 490.009 226.541 489.288C226.603 488.567 226.683 487.848 226.78 487.131C226.878 486.414 226.993 485.7 227.126 484.989C227.258 484.278 227.408 483.57 227.575 482.866C227.742 482.162 227.927 481.463 228.128 480.768C228.329 480.073 228.548 479.384 228.783 478.699C229.018 478.015 229.27 477.337 229.538 476.665C229.807 475.993 230.091 475.328 230.392 474.67C230.693 474.012 231.01 473.362 231.343 472.72C231.676 472.077 232.024 471.443 232.388 470.818C232.752 470.193 233.131 469.577 233.525 468.97C233.919 468.363 234.328 467.766 234.751 467.179C235.174 466.592 235.611 466.016 236.063 465.451C236.514 464.886 236.979 464.332 237.458 463.789C237.936 463.246 238.427 462.716 238.932 462.197C239.437 461.678 239.954 461.172 240.483 460.679C241.012 460.186 241.553 459.706 242.106 459.239C242.659 458.772 243.223 458.319 243.798 457.88C244.373 457.441 244.958 457.017 245.554 456.606C246.15 456.195 246.755 455.8 247.37 455.419C247.985 455.038 248.61 454.673 249.243 454.322C249.876 453.972 250.517 453.637 251.167 453.318C251.816 452.999 252.473 452.697 253.137 452.41C253.802 452.123 254.473 451.853 255.15 451.599C255.827 451.345 256.511 451.108 257.2 450.888C257.889 450.667 258.583 450.464 259.282 450.277C259.981 450.091 260.685 449.922 261.392 449.77C262.099 449.618 262.81 449.483 263.524 449.366C264.238 449.249 264.954 449.149 265.673 449.067Z" fill="black"/>
<path d="M268.618 469.415C269.004 469.38 269.391 469.354 269.778 469.338C270.166 469.322 270.554 469.315 270.941 469.318C271.329 469.321 271.717 469.333 272.104 469.354C272.491 469.375 272.878 469.406 273.263 469.446C273.649 469.487 274.033 469.536 274.416 469.595C274.799 469.654 275.181 469.722 275.561 469.8C275.941 469.877 276.319 469.964 276.695 470.059C277.071 470.155 277.444 470.26 277.815 470.374C278.186 470.488 278.553 470.611 278.918 470.743C279.283 470.874 279.644 471.015 280.001 471.164C280.359 471.314 280.713 471.472 281.064 471.638C281.414 471.805 281.76 471.98 282.101 472.163C282.443 472.346 282.78 472.538 283.112 472.738C283.445 472.938 283.772 473.146 284.094 473.361C284.417 473.577 284.734 473.8 285.045 474.031C285.356 474.262 285.662 474.501 285.962 474.747C286.262 474.992 286.556 475.245 286.843 475.506C287.13 475.766 287.411 476.033 287.686 476.307C287.961 476.58 288.229 476.861 288.49 477.148C288.751 477.435 289.004 477.728 289.251 478.027C289.498 478.326 289.737 478.631 289.969 478.942C290.201 479.253 290.425 479.569 290.642 479.89C290.858 480.212 291.066 480.539 291.267 480.871C291.468 481.202 291.66 481.539 291.845 481.88C292.029 482.221 292.205 482.567 292.373 482.917C292.54 483.266 292.699 483.62 292.849 483.977C293 484.334 293.141 484.695 293.274 485.06C293.407 485.424 293.531 485.791 293.646 486.162C293.761 486.533 293.867 486.906 293.964 487.281C294.061 487.656 294.148 488.034 294.227 488.414C294.305 488.793 294.374 489.175 294.434 489.558C294.494 489.941 294.545 490.326 294.586 490.711C294.627 491.096 294.659 491.483 294.682 491.87C294.704 492.257 294.717 492.645 294.721 493.032C294.725 493.42 294.719 493.808 294.704 494.195C294.689 494.582 294.664 494.969 294.63 495.356C294.596 495.742 294.553 496.127 294.5 496.512C294.447 496.896 294.385 497.279 294.314 497.66C294.243 498.041 294.162 498.42 294.073 498.797C293.983 499.174 293.884 499.549 293.777 499.922C293.669 500.295 293.552 500.664 293.426 501.031C293.3 501.398 293.165 501.761 293.022 502.121C292.879 502.482 292.726 502.838 292.565 503.191C292.404 503.544 292.235 503.892 292.057 504.237C291.88 504.582 291.694 504.922 291.499 505.258C291.305 505.593 291.103 505.924 290.892 506.25C290.682 506.575 290.464 506.896 290.238 507.211C290.012 507.526 289.778 507.836 289.537 508.139C289.296 508.443 289.048 508.741 288.792 509.033C288.537 509.324 288.274 509.61 288.005 509.889C287.736 510.168 287.46 510.44 287.177 510.706C286.895 510.971 286.606 511.23 286.311 511.481C286.016 511.733 285.715 511.977 285.408 512.214C285.101 512.451 284.788 512.681 284.47 512.902C284.152 513.124 283.829 513.338 283.5 513.544C283.171 513.75 282.838 513.948 282.5 514.138C282.162 514.327 281.819 514.509 281.472 514.682C281.125 514.855 280.775 515.02 280.42 515.176C280.065 515.332 279.706 515.479 279.344 515.618C278.982 515.757 278.617 515.887 278.248 516.008C277.879 516.129 277.508 516.241 277.135 516.344C276.761 516.447 276.385 516.54 276.006 516.625C275.628 516.71 275.248 516.785 274.865 516.851C274.483 516.918 274.1 516.975 273.715 517.022C273.453 517.054 273.191 517.082 272.928 517.106C272.665 517.129 272.402 517.149 272.138 517.164C271.875 517.179 271.611 517.189 271.348 517.196C271.084 517.202 270.82 517.204 270.556 517.201C270.292 517.199 270.028 517.192 269.765 517.181C269.501 517.17 269.237 517.154 268.974 517.134C268.711 517.114 268.449 517.09 268.186 517.062C267.924 517.033 267.662 517 267.401 516.963C267.14 516.926 266.879 516.884 266.619 516.838C266.359 516.792 266.1 516.742 265.842 516.688C265.584 516.633 265.327 516.575 265.07 516.512C264.814 516.449 264.559 516.381 264.305 516.31C264.051 516.239 263.798 516.163 263.546 516.084C263.295 516.004 263.045 515.92 262.796 515.832C262.547 515.744 262.299 515.652 262.054 515.556C261.808 515.459 261.564 515.359 261.322 515.255C261.079 515.151 260.839 515.043 260.6 514.93C260.361 514.818 260.124 514.702 259.889 514.582C259.654 514.462 259.421 514.338 259.19 514.21C258.959 514.083 258.731 513.951 258.504 513.816C258.277 513.681 258.053 513.542 257.831 513.399C257.609 513.256 257.389 513.11 257.172 512.96C256.955 512.81 256.741 512.656 256.529 512.499C256.316 512.342 256.107 512.181 255.9 512.017C255.693 511.853 255.489 511.686 255.288 511.515C255.087 511.344 254.889 511.17 254.693 510.993C254.498 510.816 254.305 510.635 254.116 510.452C253.927 510.268 253.74 510.081 253.557 509.891C253.374 509.702 253.193 509.509 253.016 509.313C252.839 509.117 252.666 508.918 252.495 508.717C252.325 508.516 252.158 508.311 251.994 508.104C251.831 507.897 251.671 507.687 251.514 507.475C251.357 507.262 251.204 507.047 251.055 506.83C250.905 506.613 250.759 506.393 250.617 506.171C250.474 505.948 250.336 505.724 250.201 505.497C250.066 505.27 249.935 505.041 249.808 504.81C249.681 504.579 249.557 504.346 249.437 504.111C249.318 503.876 249.202 503.638 249.09 503.399C248.979 503.16 248.871 502.92 248.767 502.677C248.663 502.434 248.563 502.19 248.468 501.944C248.372 501.698 248.28 501.45 248.193 501.201C248.105 500.952 248.021 500.702 247.942 500.45C247.863 500.199 247.788 499.946 247.717 499.691C247.646 499.437 247.58 499.182 247.517 498.926C247.454 498.669 247.396 498.412 247.343 498.153C247.289 497.895 247.239 497.636 247.194 497.376C247.149 497.116 247.107 496.855 247.07 496.594C247.033 496.333 247.001 496.071 246.973 495.808C246.945 495.546 246.921 495.283 246.902 495.02C246.883 494.757 246.868 494.493 246.857 494.23C246.846 493.966 246.84 493.702 246.838 493.438C246.836 493.174 246.838 492.91 246.845 492.647C246.852 492.383 246.863 492.119 246.878 491.856C246.893 491.593 246.913 491.329 246.938 491.066C246.962 490.803 246.99 490.541 247.023 490.279C247.056 490.018 247.093 489.757 247.135 489.496C247.176 489.235 247.222 488.975 247.272 488.716C247.322 488.457 247.376 488.199 247.435 487.942C247.494 487.685 247.557 487.428 247.624 487.173C247.691 486.918 247.762 486.664 247.837 486.411C247.913 486.158 247.993 485.906 248.076 485.656C248.16 485.406 248.248 485.157 248.34 484.91C248.432 484.663 248.528 484.417 248.628 484.172C248.729 483.928 248.833 483.686 248.941 483.445C249.049 483.204 249.161 482.965 249.277 482.728C249.393 482.491 249.513 482.256 249.637 482.023C249.761 481.79 249.889 481.56 250.02 481.331C250.151 481.102 250.287 480.875 250.426 480.651C250.565 480.426 250.707 480.204 250.854 479.985C251 479.766 251.15 479.549 251.304 479.334C251.457 479.119 251.614 478.907 251.775 478.697C251.935 478.488 252.099 478.281 252.266 478.077C252.433 477.873 252.604 477.672 252.778 477.473C252.952 477.275 253.129 477.08 253.31 476.887C253.491 476.694 253.674 476.505 253.861 476.318C254.048 476.132 254.237 475.949 254.43 475.768C254.623 475.588 254.818 475.411 255.017 475.238C255.216 475.064 255.417 474.893 255.622 474.726C255.826 474.559 256.033 474.396 256.243 474.235C256.452 474.075 256.664 473.918 256.879 473.765C257.094 473.612 257.312 473.462 257.532 473.316C257.751 473.17 257.973 473.028 258.198 472.889C258.423 472.75 258.649 472.616 258.878 472.485C259.107 472.354 259.339 472.226 259.572 472.103C259.805 471.979 260.04 471.859 260.277 471.744C260.514 471.628 260.753 471.516 260.994 471.408C261.235 471.3 261.477 471.196 261.722 471.097C261.966 470.997 262.212 470.901 262.459 470.809C262.707 470.718 262.956 470.63 263.206 470.547C263.457 470.463 263.708 470.384 263.961 470.309C264.214 470.234 264.468 470.163 264.723 470.096C264.978 470.029 265.235 469.967 265.493 469.908C265.75 469.85 266.008 469.796 266.267 469.746C266.526 469.697 266.786 469.651 267.047 469.61C267.308 469.569 267.569 469.532 267.831 469.499C268.093 469.467 268.355 469.439 268.618 469.415Z" fill="#E2E2E2"/>
<path d="M470.868 451.523C483.535 451.464 507.111 449.588 518.507 454.306C523.965 456.566 528.32 460.675 530.456 466.236C532.802 472.345 532.823 480.556 530.051 486.475C526.748 493.528 520.81 496.93 513.883 499.609C516.314 503.337 519.16 506.857 521.726 510.502L538.481 534.591C532.968 534.726 527.455 534.797 521.94 534.803L513.968 534.679C509.76 528.947 505.781 522.855 502.414 516.589C500.248 512.558 498.563 507.713 495.848 504.069C494.346 503.683 493.255 503.791 491.755 503.995C490.632 505.856 491.093 531.316 491.064 535.44L470.599 535.518L470.868 451.523Z" fill="black"/>
<path d="M491.256 467.292C496.391 467.282 502.401 467.152 506.87 470.045C508.798 471.293 510.26 473.131 510.698 475.42C511.392 479.037 509.082 483.04 507.035 485.807C502.136 489.469 497.174 489.12 491.325 489.199L491.256 467.292Z" fill="#E2E2E2"/>
<path d="M176.101 449.71C182.017 449.1 189.052 450.38 194.575 452.514C195.14 452.734 195.698 452.967 196.251 453.214C196.804 453.461 197.351 453.722 197.891 453.996C198.432 454.27 198.965 454.557 199.491 454.857C200.017 455.157 200.536 455.47 201.047 455.795C201.558 456.12 202.06 456.458 202.555 456.809C203.049 457.159 203.534 457.521 204.011 457.895C204.488 458.269 204.955 458.654 205.412 459.051C205.87 459.448 206.318 459.855 206.756 460.274C207.193 460.693 207.62 461.122 208.037 461.562C208.454 462.001 208.859 462.451 209.254 462.911C209.649 463.37 210.032 463.839 210.404 464.317C210.775 464.796 211.135 465.283 211.483 465.779C211.831 466.275 212.166 466.779 212.489 467.292C212.812 467.804 213.123 468.324 213.421 468.852C213.718 469.379 214.003 469.914 214.274 470.455C214.545 470.997 214.803 471.545 215.048 472.099C208.991 475.579 202.106 477.991 195.649 480.63L195.381 479.921C193.447 474.853 190.554 470.696 185.376 468.517C180.428 466.435 174.717 466.798 169.833 468.875C169.493 469.016 169.157 469.166 168.825 469.325C168.493 469.483 168.165 469.65 167.841 469.825C167.518 470 167.199 470.183 166.884 470.374C166.569 470.565 166.26 470.764 165.956 470.971C165.651 471.178 165.352 471.392 165.059 471.614C164.765 471.836 164.477 472.065 164.195 472.302C163.913 472.539 163.637 472.782 163.368 473.032C163.098 473.283 162.835 473.54 162.578 473.803C162.321 474.067 162.071 474.337 161.828 474.613C161.585 474.89 161.35 475.172 161.121 475.46C160.892 475.749 160.67 476.043 160.456 476.342C160.242 476.641 160.036 476.946 159.838 477.256C159.639 477.565 159.449 477.88 159.266 478.2C159.083 478.519 158.909 478.843 158.742 479.172C158.576 479.5 158.418 479.832 158.269 480.168C158.119 480.505 157.978 480.845 157.846 481.188C154.855 488.82 155.056 499.317 158.59 506.734C160.957 511.702 164.985 515.571 170.21 517.4C176.016 519.432 183.34 519.066 188.888 516.383C194.058 513.883 196.715 509.742 198.545 504.512C191.533 504.438 184.506 504.705 177.495 504.872L177.534 487.636L183.375 487.629L218.549 487.7C218.617 500.823 218.254 512.413 209.463 523.026C202.758 531.12 192.931 535.201 182.62 536.138C170.641 537.226 158.198 534.199 148.89 526.388C140.064 518.982 135.437 507.999 134.559 496.652C133.686 485.356 136.511 472.848 144.028 464.118C152.534 454.239 163.471 450.74 176.101 449.71Z" fill="black"/>
<path d="M435.035 451.526L456.284 451.442C456.016 458.04 456.069 464.648 456.058 471.25C456.041 478.26 456.163 485.275 456.218 492.285C456.316 504.662 457.253 517.858 447.811 527.404C440.519 534.775 430.504 537.136 420.424 537.079C410.511 537.023 400.147 534.099 393.153 526.715C389.948 523.331 387.838 519.239 386.785 514.71C384.861 506.431 385.648 497.178 385.638 488.71C385.589 476.323 385.646 463.938 385.809 451.553L406.596 451.529C406.665 462.804 406.669 474.08 406.608 485.355C406.598 491.556 406.197 498.142 406.964 504.295C407.365 507.515 408.1 511.431 410.279 513.936C412.838 516.879 416.952 518.047 420.732 518.126C424.49 518.206 428.755 517.273 431.507 514.54C433.654 512.409 434.376 508.845 434.758 505.967C435.573 499.813 435.078 493.129 435.073 486.91L435.035 451.526Z" fill="black"/>
<path d="M325.957 451.45C341.353 451.254 356.779 451.479 372.178 451.5L372.07 468.576C363.653 468.729 355.236 468.713 346.819 468.528L346.853 484.198C355.165 484.187 363.476 484.268 371.786 484.44C371.847 489.963 371.821 495.486 371.708 501.009L346.982 501.003L346.971 509.75L347.002 517L372.503 516.999L372.542 534.378C357.157 534.149 341.737 534.384 326.348 534.409C325.51 506.84 325.922 479.039 325.957 451.45Z" fill="black"/>
<path d="M834.679 451.003C841.265 450.921 847.85 450.98 854.433 451.18L854.524 516.141C862.628 516.296 870.733 516.405 878.838 516.469C878.871 522.33 878.973 528.194 878.645 534.048C863.94 534.017 849.235 533.899 834.53 533.694C834.958 506.138 834.466 478.563 834.679 451.003Z" fill="black"/>
<path d="M799.035 451.057L818.583 450.963C819.211 478.486 819.355 506.221 818.876 533.744C812.326 534.029 805.706 533.841 799.147 533.828L799.035 451.057Z" fill="black"/>
</g>
<defs>
<clipPath id="clip0_4_73">
<rect width="1024" height="584" fill="white"/>
</clipPath>
</defs>
</svg>
